<svg id="SvgjsSvg1001" width="288" height="288" xmlns="http://www.w3.org/2000/svg" version="1.1" xmlns:xlink="http://www.w3.org/1999/xlink" xmlns:svgjs="http://svgjs.com/svgjs"><defs id="SvgjsDefs1002"></defs><g id="SvgjsG1008" transform="matrix(0.9167,0,0,0.9167,12.004762835547325,11.995178354790824)"><svg xmlns="http://www.w3.org/2000/svg" width="288" height="288" data-name="Asset 1" viewBox="0 0 556.88 555.353"><g data-name="Layer 1" transform="translate(.5)" fill="#fc5185" class="color000 svgShape"><path fill="none" stroke="#000000" stroke-linejoin="round" d="M.666,161.667.5,181.979l29.884,14.938V377.655l-16.1,8.054-4.852,4.844v14.556l4.852,4.844,160.783,80.4V467.631l18.894-10.65v39.074L268.12,533.13,505.856,414.266l-.539-36.818,28.565-14.283-28.026-13.544v-134.2l28.026-13.7L505.856,187.7V176.53l29.718-14.863-73.121-36.561V91.722l-33.376,16.19L268.12,27.94Z" data-name="Path 2" transform="translate(-.5 -4.766)" class="colorStrokefff svgStroke"></path><path fill="none" stroke="#000000" stroke-linejoin="round" d="M72.36,260.83,131.8,290.548v59.436L72.36,320.266Z" data-name="Path 3" transform="translate(-12.758 -44.493)" class="colorStrokefff svgStroke"></path><path fill="none" stroke="#000000" stroke-linejoin="round" d="M81.85,271.79,128.256,295v46.4L81.85,318.2Z" data-name="Path 4" transform="translate(-14.377 -46.363)" class="colorStrokefff svgStroke"></path><path fill="none" stroke="#000000" stroke-width=".5" d="M452.56,298.638l36.776-18.388v-9.19L452.56,289.44Z" data-name="Path 5" transform="translate(-77.614 -46.238)" class="colorStrokefff svgStroke"></path><path fill="none" stroke="#000000" stroke-width=".5" d="M448.78,287.548l-18.38-9.19,36.768-18.388,18.388,9.2Z" data-name="Path 6" transform="translate(-73.834 -44.346)" class="colorStrokefff svgStroke"></path><path fill="none" stroke="#000000" stroke-width=".5" d="M430.4,276.468v-9.19l36.768-18.388v9.19Z" data-name="Path 7" transform="translate(-73.834 -42.456)" class="colorStrokefff svgStroke"></path><path fill="none" stroke="#000000" stroke-width=".5" d="M426.618,265.388l-18.388-9.2L445,237.81,463.386,247Z" data-name="Path 8" transform="translate(-70.052 -40.566)" class="colorStrokefff svgStroke"></path><path fill="none" stroke="#000000" stroke-width=".5" d="M408.23,254.3,445,235.918v-9.2L408.23,245.108Z" data-name="Path 9" transform="translate(-70.052 -38.675)" class="colorStrokefff svgStroke"></path><path fill="none" stroke="#000000" stroke-width=".5" d="M404.448,243.218l-18.388-9.19,36.776-18.388,18.38,9.19Z" data-name="Path 10" transform="translate(-66.27 -36.784)" class="colorStrokefff svgStroke"></path><path fill="none" stroke="#000000" stroke-width=".5" d="M386.06,232.136v-9.2l36.776-18.388v9.2Z" data-name="Path 11" transform="translate(-66.27 -34.893)" class="colorStrokefff svgStroke"></path><path fill="none" stroke="#000000" stroke-width=".5" d="M382.278,221.048l-18.388-9.19,36.776-18.388,18.388,9.19Z" data-name="Path 12" transform="translate(-62.488 -33.003)" class="colorStrokefff svgStroke"></path><path fill="none" stroke="#000000" stroke-width=".5" d="M363.89,209.968l36.776-18.388v-9.19L363.89,200.77Z" data-name="Path 13" transform="translate(-62.488 -31.113)" class="colorStrokefff svgStroke"></path><path fill="none" stroke="#000000" stroke-width=".5" d="M360.11,198.88l-18.38-9.19L378.5,171.31l18.388,9.19Z" data-name="Path 14" transform="translate(-58.708 -29.223)" class="colorStrokefff svgStroke"></path><path fill="none" stroke="#000000" stroke-width=".5" d="M341.73,187.8v-9.19L378.5,160.22v9.2Z" data-name="Path 15" transform="translate(-58.708 -27.331)" class="colorStrokefff svgStroke"></path><path fill="none" stroke="#000000" stroke-width=".5" d="M337.948,176.718l-18.388-9.19,36.768-18.388,18.388,9.19Z" data-name="Path 16" transform="translate(-54.926 -25.441)" class="colorStrokefff svgStroke"></path><path fill="none" stroke="#000000" stroke-width=".5" d="M111.706,505.428,74.93,487.04v-9.19l36.776,18.38Z" data-name="Path 17" transform="translate(-13.196 -81.513)" class="colorStrokefff svgStroke"></path><path fill="none" stroke="#000000" stroke-width=".5" d="M111.706,494.338l18.38-9.19L93.318,466.76l-18.388,9.2Z" data-name="Path 18" transform="translate(-13.196 -79.621)" class="colorStrokefff svgStroke"></path><path fill="none" stroke="#000000" stroke-width=".5" d="M133.868,483.258v-9.19L97.1,455.68v9.19Z" data-name="Path 19" transform="translate(-16.978 -77.731)" class="colorStrokefff svgStroke"></path><path fill="none" stroke="#000000" stroke-width=".5" d="M133.868,472.176l18.388-9.2L115.488,444.59l-18.388,9.2Z" data-name="Path 20" transform="translate(-16.978 -75.839)" class="colorStrokefff svgStroke"></path><path fill="none" stroke="#000000" stroke-width=".5" d="M156.038,461.088,119.27,442.7v-9.19L156.038,451.9Z" data-name="Path 21" transform="translate(-20.76 -73.949)" class="colorStrokefff svgStroke"></path><path fill="none" stroke="#000000" stroke-width=".5" d="M156.038,450.008l18.388-9.2L137.65,422.43l-18.38,9.19Z" data-name="Path 22" transform="translate(-20.76 -72.059)" class="colorStrokefff svgStroke"></path><path fill="none" stroke="#000000" stroke-width=".5" d="M178.206,438.92v-9.19L141.43,411.35v9.19Z" data-name="Path 23" transform="translate(-24.54 -70.169)" class="colorStrokefff svgStroke"></path><path fill="none" stroke="#000000" stroke-width=".5" d="M178.206,427.838l18.388-9.19L159.818,400.26l-18.388,9.2Z" data-name="Path 24" transform="translate(-24.54 -68.277)" class="colorStrokefff svgStroke"></path><path fill="none" stroke="#000000" stroke-width=".5" d="M200.376,416.758,163.6,398.37v-9.19l36.776,18.388Z" data-name="Path 25" transform="translate(-28.322 -66.387)" class="colorStrokefff svgStroke"></path><path fill="none" stroke="#000000" stroke-width=".5" d="M200.376,405.678l18.38-9.2L181.988,378.1,163.6,387.29Z" data-name="Path 26" transform="translate(-28.322 -64.497)" class="colorStrokefff svgStroke"></path><path fill="none" stroke="#000000" stroke-width=".5" d="M222.538,394.588V385.4L185.77,367.01v9.2Z" data-name="Path 27" transform="translate(-32.104 -62.606)" class="colorStrokefff svgStroke"></path><path fill="none" stroke="#000000" stroke-width=".5" d="M222.538,383.508l18.388-9.19L204.158,355.93l-18.388,9.19Z" data-name="Path 28" transform="translate(-32.104 -60.716)" class="colorStrokefff svgStroke"></path><path fill="none" stroke="#000000" stroke-linejoin="round" stroke-width=".5" d="M36.53,444.826V207.09L274.266,325.954V563.69Z" data-name="Path 29" transform="translate(-6.646 -35.326)" class="colorStrokefff svgStroke"></path><path fill="none" stroke="#000000" stroke-linejoin="round" stroke-width=".5" d="M323.16,563.69V325.954L560.9,207.09V444.826Z" data-name="Path 30" transform="translate(-55.54 -35.326)" class="colorStrokefff svgStroke"></path><path fill="none" stroke="#000000" stroke-linejoin="round" stroke-width=".5" d="M.7,161.667,268.154,295.394,535.608,161.667,505.89,146.812l-29.718-14.863-29.718-14.855-29.718-14.855-29.71-14.863L357.308,72.521,327.59,57.658,297.872,42.8,268.154,27.94Z" data-name="Path 31" transform="translate(-.534 -4.766)" class="colorStrokefff svgStroke"></path><path fill="none" stroke="#000000" stroke-linejoin="round" stroke-width=".5" d="M535.608,161.667,398.779,93.257,339.343,63.539l-71.189-35.6L.7,161.667,268.154,295.394V27.94Z" data-name="Path 32" transform="translate(-.534 -4.766)" class="colorStrokefff svgStroke"></path><path fill="none" stroke="#000000" stroke-linejoin="round" stroke-width=".5" d="M215.67,391.918V332.49l59.436,29.718h0v59.428Z" data-name="Path 33" transform="translate(-37.204 -56.717)" class="colorStrokefff svgStroke"></path><path fill="none" stroke="#000000" stroke-linejoin="round" stroke-width=".5" d="M418.426,391.918V332.49L358.99,362.208h0v59.428Z" data-name="Path 34" transform="translate(-61.652 -56.717)" class="colorStrokefff svgStroke"></path><path fill="none" stroke="#000000" stroke-linejoin="round" stroke-width=".5" d="M561.736,320.266V260.83L502.3,290.548h0v59.436Z" data-name="Path 35" transform="translate(-86.098 -44.493)" class="colorStrokefff svgStroke"></path><path fill="none" stroke="#000000" stroke-linejoin="round" stroke-width=".5" d="M444.82,141.156h0L474.538,126.3V52.01L444.82,66.865h0Z" data-name="Path 36" transform="translate(-76.293 -8.872)" class="colorStrokefff svgStroke"></path><path fill="none" stroke="#000000" stroke-linejoin="round" stroke-width=".5" d="M438.708,141.156,408.99,111.438V52.01l29.718,14.855Z" data-name="Path 37" transform="translate(-70.181 -8.872)" class="colorStrokefff svgStroke"></path><path fill="none" stroke="#000000" stroke-linejoin="round" stroke-width=".5" d="M408.99,58.953,438.708,44.09l29.718,14.863L438.708,73.808Z" data-name="Path 38" transform="translate(-70.181 -7.521)" class="colorStrokefff svgStroke"></path><path fill="none" stroke="#000000" stroke-linejoin="round" stroke-width=".5" d="M468.426,102.6V48.953L438.708,34.09,408.99,48.953v23.7Z" data-name="Path 39" transform="translate(-70.181 -5.815)" class="colorStrokefff svgStroke"></path><path fill="none" stroke="#000000" stroke-width=".25" d="M276.413,45.908v57.429l47.866,23.937v4.786l-47.866-23.937V165.56l47.866,23.929v4.794l-47.866-23.937v57.437L180.69,179.917V9.48" data-name="Path 40" transform="translate(-31.237 -1.617)" class="colorStrokefff svgStroke"></path><path fill="none" stroke="#000000" stroke-width=".25" d="M557.46,104.84V280.511l89.171,44.067" data-name="Path 41" transform="translate(-95.508 -17.884)" class="colorStrokefff svgStroke"></path><path fill="none" stroke="#000000" stroke-width=".25" d="M516.1,470.936,146.09,288.954V270.375l341.2-165.535" data-name="Path 42" transform="translate(-25.335 -17.884)" class="colorStrokefff svgStroke"></path><path fill="none" stroke="#000000" stroke-width=".25" d="M233.75,0V237.893l50.943-24.037V197.584l.091-.05,19.359-9.688.232-.116v16.829l15.543-7.332v-.191l-.2-.1.2-.1V194.6l-2.82-1.418-.083-.041v-.647l.083-.033,2.82-1.418V174.385l-.2-.091.2-.108V151.377l.241.116,8.1,4.048v-9.646L292.713,128.4l-.091-.041v-69.6" data-name="Path 43" transform="translate(-40.288)" class="colorStrokefff svgStroke"></path><path fill="none" stroke="#000000" stroke-width=".25" d="M265.1,111.2v28.947l-.232-.124-28.69-14.341-.083-.041V96.86" data-name="Path 44" transform="translate(-40.689 -16.523)" class="colorStrokefff svgStroke"></path><path fill="none" stroke="#000000" stroke-width=".25" d="M276.2,222.287l-.017-.008-.025-.017-.44-.448-.041-.041v-1.451l.041-.041.44-.44.025-.025.017-.008,16.613-8.3.033-.025h.954l.033.025,16.613,8.3.025.008.025.025.431.44.05.041v1.451l-.05.041-.431.448-.025.017-.025.008L293.836,230.6l-.033.008h-.954l-.033-.008Z" data-name="Path 45" transform="translate(-47.441 -36.075)" class="colorStrokefff svgStroke"></path><path fill="none" stroke="#000000" stroke-width=".25" d="M239.77,237.638l.083-.05,7.879-3.94.033-.008h.307v-8.75h.647l.033.017,25.355,12.682.025.008.017.025.448.44.041.041v1.451l-.041.041-.448.44-.017.025-.025.008-16.6,8.3-.041.025h-.647v-1.319h-.3l-.041-.008-16.622-8.319-.083-.05v-1.062Z" data-name="Path 46" transform="translate(-41.315 -38.362)" class="colorStrokefff svgStroke"></path><path fill="none" stroke="#000000" stroke-width=".25" d="M236.06,162.117l.033-.017V133.27l.232.116,28.59,14.3.141-.075v.149l.042.017v29.038l-.174-.091-28.631,14.316-.232.116V162.117Z" data-name="Path 47" transform="translate(-40.683 -22.734)" class="colorStrokefff svgStroke"></path><line x1="33.591" y1="16.796" fill="none" stroke="#000000" stroke-width=".25" data-name="Line 13" transform="translate(477.321 249.538)" class="colorStrokefff svgStroke"></line><path fill="none" stroke="#000000" stroke-width=".25" d="M575.99,299.6v-6.1h21.349" data-name="Path 48" transform="translate(-98.669 -50.066)" class="colorStrokefff svgStroke"></path><path fill="none" stroke="#000000" stroke-width=".25" d="M511.83,305.089l9.53-4.769v4.769h-9.53" data-name="Path 49" transform="translate(-87.724 -51.229)" class="colorStrokefff svgStroke"></path><path fill="none" stroke="#000000" stroke-width=".25" d="M577.638,283.73l-7.183-3.591-.033-.008H548.8l-.041.041-.971.954-.166-.149v9.912H537.76" data-name="Path 50" transform="translate(-92.147 -47.785)" class="colorStrokefff svgStroke"></path><path fill="none" stroke="#000000" stroke-width=".25" d="M594.96,277.368l-12.027-6.013-.042-.025h-.033v0h-.639v1.1h0v.075l.058.041.464.464.116-.108-.116.108.025.017.025.017,10.4,5.2" data-name="Path 51" transform="translate(-99.731 -46.284)" class="colorStrokefff svgStroke"></path><path fill="none" stroke="#000000" stroke-width=".25" d="M599.455,274.188l-16.522-8.269-.042-.008h-.033v0h-.639v1.111h0v.05l.058.066.464.464.108-.116-.108.116.025.017.025.008,14.888,7.448" data-name="Path 52" transform="translate(-99.731 -45.36)" class="colorStrokefff svgStroke"></path><path fill="none" stroke="#000000" stroke-width=".25" d="M600.625,269.358l-17.691-8.85-.042-.008h-.033v0h-.639v1.095h.174l-.116.116.108-.116h-.166v.066l.058.05.464.464.025.033.025.008,17.833,8.916" data-name="Path 53" transform="translate(-99.731 -44.437)" class="colorStrokefff svgStroke"></path><path fill="none" stroke="#000000" stroke-width=".25" d="M591.3,241.36l-8.46,4.222-.025.025-.008.017-.473.464.116.116-.116-.116-.041.05v7.83h.158l-.075.149.075-.149h-.158v.108l.083.041.465.224h0l13.171,6.586" data-name="Path 54" transform="translate(-99.743 -41.172)" class="colorStrokefff svgStroke"></path><path fill="none" stroke="#000000" stroke-width=".25" d="M536.264,276.453l.937-.473.025-.008.008-.017-.091-.1-.008-.008.1.108.44-.448.05-.041v-.058h0v-1.045h-.158v0h-.481l-.033.017-4.139,2.074H528.99v-21.44l8.211-4.106.025-.017.008-.025-.091-.083-.017-.025.108.108.44-.431.05-.041v-.075h-.158l.108.116-.108-.116h.158v-1.037h-.158v0h-.481l-.033.025-8.062,4.031v-1.982h.771V251.2h.166v-7.266h14.7v-.158h.158v-7.266h14.689v-.166h.166V216.129h-.166v0h-.7l-1.452-.73-.083.158.083-.158-.423-.207,38.568-19.682" data-name="Path 55" transform="translate(-90.651 -33.351)" class="colorStrokefff svgStroke"></path><path fill="none" stroke="#000000" stroke-width=".25" d="M529.92,262.808h.166v-.158h-.166v.158" data-name="Path 56" transform="translate(-90.81 -44.804)" class="colorStrokefff svgStroke"></path><path fill="none" stroke="#000000" stroke-width=".25" d="M547.84,253.858H548V253.7h-.158v.158" data-name="Path 57" transform="translate(-93.867 -43.277)" class="colorStrokefff svgStroke"></path><path fill="none" stroke="#000000" stroke-width=".25" d="M565.74,244.906h.166v-.166h-.166v.166" data-name="Path 58" transform="translate(-96.92 -41.748)" class="colorStrokefff svgStroke"></path><path fill="none" stroke="#000000" stroke-width=".25" d="M551.15,280.32h0l.008.008h-.008v-.008" data-name="Path 59" transform="translate(-94.431 -47.818)" class="colorStrokefff svgStroke"></path><path fill="none" stroke="#000000" stroke-width=".25" d="M551.02,280.18l.075.083v.008l-.075-.091" data-name="Path 60" transform="translate(-94.409 -47.794)" class="colorStrokefff svgStroke"></path><path fill="none" stroke="#000000" stroke-width=".25" d="M582.968,262.39h.008l-.066.149.058-.149" data-name="Path 61" transform="translate(-99.849 -44.759)" class="colorStrokefff svgStroke"></path><path fill="none" stroke="#000000" stroke-width=".25" d="M582.91,246.5l.108.108h0v.008l-.108-.116" data-name="Path 62" transform="translate(-99.849 -42.049)" class="colorStrokefff svgStroke"></path><path fill="none" stroke="#000000" stroke-width=".25" d="M479.89,235.534l9.472-4.4v7.448l-5.914,2.953-3.558,1.783v-7.78" data-name="Path 63" transform="translate(-82.276 -39.427)" class="colorStrokefff svgStroke"></path><path fill="none" stroke="#000000" stroke-width=".25" d="M479.42,112.91v20.379h0v.166h1.443l8.369,4.189v12.068h0v.39l.05-.05v51.192l-9.472,4.4V135.595" data-name="Path 64" transform="translate(-82.195 -19.261)" class="colorStrokefff svgStroke"></path><path fill="none" stroke="#000000" stroke-width=".25" d="M476.492,135.219v-.166h-.166v0h-2.19l-.033.008-14.133,6.959v-9.746l8-4.006.1-.05v-.1h-.166l.066.149-.066-.149h.166v-4.976l.216-.091-.216-.116V110.71" data-name="Path 65" transform="translate(-78.878 -18.885)" class="colorStrokefff svgStroke"></path><path fill="none" stroke="#000000" stroke-width=".25" d="M564.848,220.568l-.008-.008h.008v.008h0" data-name="Path 66" transform="translate(-96.767 -37.624)" class="colorStrokefff svgStroke"></path><path fill="none" stroke="#000000" stroke-width=".25" d="M504.68,149.44,545.5,169.852l-7,3.5.066.141-.066-.141-.1.033v13.254L504.68,202.315V149.44" data-name="Path 67" transform="translate(-86.504 -25.492)" class="colorStrokefff svgStroke"></path><path fill="none" stroke="#000000" stroke-width=".25" d="M446.38,142.49l1.725-.871,3.824-1.9,4.28-2.14v.29h0v7.788h0v1.651l-9.829,4.844V142.49" data-name="Path 68" transform="translate(-76.559 -23.469)" class="colorStrokefff svgStroke"></path><path fill="none" stroke="#000000" stroke-width=".25" d="M593.292,132.41l-17.725,8.858h-.5l-.066.29-2.463,1.228-17.36-8.676" data-name="Path 69" transform="translate(-95.119 -22.587)" class="colorStrokefff svgStroke"></path><path fill="none" stroke="#000000" stroke-width=".25" d="M555.18,133.559v-2.322l.116-.05.9.448.232.116v-.257h0v-.879l.514-.257,3.243,1.626h-2.6l-.066.307,1.742.871.066-.141-.066.141,5.69,2.845.066-.141h.166V134.48l1.675.846.041.025h2.687l.042-.025.149-.083v1.111h-3.442l-.083.307,3.525,1.758v.124h.166l.116.116.066-.066,3.566,1.783.066-.141h.174v-3.882h-.166v0H573.6l14.349-7.174" data-name="Path 70" transform="translate(-95.119 -22.036)" class="colorStrokefff svgStroke"></path><path fill="none" stroke="#000000" stroke-width=".25" d="M577.49,142.651l.241.116v-.257h-.166l-.075.141" data-name="Path 71" transform="translate(-98.925 -24.31)" class="colorStrokefff svgStroke"></path><path fill="none" stroke="#000000" stroke-width=".25" d="M572.77,140.868l.282-.282-.116-.116h-.166v.4" data-name="Path 72" transform="translate(-98.119 -23.962)" class="colorStrokefff svgStroke"></path><path fill="none" stroke="#000000" stroke-width=".25" d="M566.95,137.381l.232.116v-.257h-.166l-.066.141" data-name="Path 73" transform="translate(-97.127 -23.411)" class="colorStrokefff svgStroke"></path><path fill="none" stroke="#000000" stroke-width=".25" d="M569.333,136.41v.008l-.083.141.083-.149" data-name="Path 74" transform="translate(-97.519 -23.269)" class="colorStrokefff svgStroke"></path><path fill="none" stroke="#000000" stroke-width=".25" d="M333.19,129.131l.066-.141-.066.141h0" data-name="Path 75" transform="translate(-57.251 -22.003)" class="colorStrokefff svgStroke"></path><path fill="none" stroke="#000000" stroke-width=".25" d="M525.16,114.69V122.4l-1.46-.7" data-name="Path 76" transform="translate(-89.749 -19.564)" class="colorStrokefff svgStroke"></path><line y1="7.747" fill="none" stroke="#000000" stroke-width=".25" data-name="Line 14" transform="translate(433.951 94.388)" class="colorStrokefff svgStroke"></line><path fill="none" stroke="#000000" stroke-width=".25" d="M517.509,112.03v7.8l-12.889-6.187" data-name="Path 77" transform="translate(-86.494 -19.11)" class="colorStrokefff svgStroke"></path><path fill="none" stroke="#000000" stroke-width=".25" d="M453.233,72.06,339.594,128.875l-2.994,2.986v8.974l2.994,2.986,113.638,56.815H459.2l113.638-56.815" data-name="Path 78" transform="translate(-57.833 -12.292)" class="colorStrokefff svgStroke"></path><line x1="113.638" y1="56.815" fill="none" stroke="#000000" stroke-width=".25" data-name="Line 15" transform="translate(401.372 59.768)" class="colorStrokefff svgStroke"></line><line x1="86.069" y1="41.338" fill="none" stroke="#000000" stroke-width=".25" data-name="Line 16" transform="translate(441.872 84.319)" class="colorStrokefff svgStroke"></line><line x2="125.872" y2="63.467" fill="none" stroke="#000000" stroke-width=".25" data-name="Line 17" transform="translate(419.876 71.612)" class="colorStrokefff svgStroke"></line><path fill="none" stroke="#000000" stroke-width=".25" d="M589.531,177.34l-43.038-21.523-15.062-7.531-1.07-1.07V135.38h1.07l83.912,41.96" data-name="Path 79" transform="translate(-90.885 -23.094)" class="colorStrokefff svgStroke"></path><line x1="126.942" y1="63.475" fill="none" stroke="#000000" stroke-width=".25" data-name="Line 18" transform="translate(429.381 94.91)" class="colorStrokefff svgStroke"></line><line x2="128.021" y2="64.545" fill="none" stroke="#000000" stroke-width=".25" data-name="Line 19" transform="translate(428.303 85.231)" class="colorStrokefff svgStroke"></line><path fill="none" stroke="#000000" stroke-width=".25" d="M586.194,164.18l-2.994,2.986v8.974l2.994,2.994" data-name="Path 80" transform="translate(-99.899 -28.006)" class="colorStrokefff svgStroke"></path><path fill="none" stroke="#000000" stroke-width=".25" d="M210.131,69.94l184.3,92.157,4.852,4.844V181.5l-4.852,4.844-184.3,92.148h-9.7L16.122,186.34,11.27,181.5V166.94l4.852-4.844,184.3-92.157" data-name="Path 81" transform="translate(-2.337 -11.931)" class="colorStrokefff svgStroke"></path><path fill="none" stroke="#000000" stroke-width=".25" d="M561.051,110.664h-5L460.99,63.13" data-name="Path 82" transform="translate(-79.052 -10.769)" class="colorStrokefff svgStroke"></path><path fill="none" stroke="#000000" stroke-width=".25" d="M207.89,107.916v24.493L295.261,90.44" data-name="Path 83" transform="translate(-35.877 -15.428)" class="colorStrokefff svgStroke"></path><path fill="none" stroke="#000000" stroke-width=".25" d="M215.62,90.87v26.218H217.8V90.87" data-name="Path 84" transform="translate(-37.196 -15.501)" class="colorStrokefff svgStroke"></path><path fill="none" stroke="#000000" stroke-width=".25" d="M351.2,82.02v50.4l-.9-.9-16.2-8.1h-.9V80.22" data-name="Path 85" transform="translate(-57.253 -13.684)" class="colorStrokefff svgStroke"></path><path fill="none" stroke="#000000" stroke-width=".25" d="M180.73,107.867l16.2,8.1h.9V73.67" data-name="Path 86" transform="translate(-31.244 -12.567)" class="colorStrokefff svgStroke"></path><path fill="none" stroke="#000000" stroke-width=".25" d="M217.78,73.67v42.3h.9l7.2-3.6.9-.9v-33.3" data-name="Path 87" transform="translate(-37.564 -12.567)" class="colorStrokefff svgStroke"></path><path fill="none" stroke="#000000" stroke-width=".25" d="M449.83,82.9l-95.068,47.526h-5L254.71,82.9" data-name="Path 88" transform="translate(-43.864 -14.141)" class="colorStrokefff svgStroke"></path><path fill="none" stroke="#000000" stroke-width=".25" d="M195.177,14.06V121.4L118.39,82.595" data-name="Path 89" transform="translate(-20.61 -2.398)" class="colorStrokefff svgStroke"></path><path fill="none" stroke="#000000" stroke-width=".25" d="M205.037,185.656V158.41L176.19,172.842Z" data-name="Path 90" transform="translate(-30.47 -27.022)" class="colorStrokefff svgStroke"></path><path fill="none" stroke="#000000" stroke-width=".25" d="M107.44,191.4v8.253l57.022-28.507,28.847-14.432V148.46Z" data-name="Path 91" transform="translate(-18.742 -25.325)" class="colorStrokefff svgStroke"></path><path fill="none" stroke="#000000" stroke-width=".25" d="M205.037,233.446V206.2L176.19,220.624Z" data-name="Path 92" transform="translate(-30.47 -35.174)" class="colorStrokefff svgStroke"></path><path fill="none" stroke="#000000" stroke-width=".25" d="M107.44,239.181v8.261l57.022-28.515L193.31,204.5V196.25Z" data-name="Path 93" transform="translate(-18.742 -33.477)" class="colorStrokefff svgStroke"></path><path fill="none" stroke="#000000" stroke-width=".25" d="M205.037,281.236V253.99L176.19,268.414Z" data-name="Path 94" transform="translate(-30.47 -43.326)" class="colorStrokefff svgStroke"></path><path fill="none" stroke="#000000" stroke-width=".25" d="M107.44,286.969v8.253l57.022-28.507,28.847-14.424V244.03Z" data-name="Path 95" transform="translate(-18.742 -41.627)" class="colorStrokefff svgStroke"></path><path fill="none" stroke="#000000" stroke-width=".25" d="M318.6,265.271v32.123l15.941-7.962V257.3Z" data-name="Path 96" transform="translate(-54.762 -43.891)" class="colorStrokefff svgStroke"></path><path fill="none" stroke="#000000" stroke-width=".25" d="M318.6,213.509v32.123l15.941-7.971V205.53Z" data-name="Path 97" transform="translate(-54.762 -35.06)" class="colorStrokefff svgStroke"></path><path fill="none" stroke="#000000" stroke-width=".25" d="M315.582,76.14l87.769,44.125v1.451L347.1,149.842h-2.422L256.42,106.206" data-name="Path 98" transform="translate(-44.156 -12.988)" class="colorStrokefff svgStroke"></path><path fill="none" stroke="#000000" stroke-width=".25" d="M463.44,102.32l39.688,18.438v3.691L463.44,106" data-name="Path 99" transform="translate(-79.47 -17.454)" class="colorStrokefff svgStroke"></path><path fill="none" stroke="#000000" stroke-width=".25" d="M476.26,306.457l35.715-16.6L551.654,308.3l-35.715,16.6Z" data-name="Path 100" transform="translate(-81.657 -49.445)" class="colorStrokefff svgStroke"></path><path fill="none" stroke="#000000" stroke-width=".25" d="M259.46,236.641l75.162-37.581h2.6l127,63.5v2.588L386.46,302.737l-127-63.5Z" data-name="Path 101" transform="translate(-44.674 -33.956)" class="colorStrokefff svgStroke"></path><path fill="none" stroke="#000000" stroke-width=".25" d="M603.986,222.65l-91.933-45.975v-2.588l12.035-6.013-34.86-17.434h-2.6l-31.178,15.585,91.966,45.983v2.6l-23.331,11.662H521.5l-93.26-46.63-16.771,8.385v2.588l127,63.5,65.516-31.659" data-name="Path 102" transform="translate(-70.604 -25.697)" class="colorStrokefff svgStroke"></path><path fill="none" stroke="#000000" stroke-width=".25" d="M159.66,205l30.265-15.137h0Z" data-name="Path 103" transform="translate(-27.65 -32.387)" class="colorStrokefff svgStroke"></path><path fill="none" stroke="#000000" stroke-width=".25" d="M163.019,211.142l-3.359,1.684,13.271-6.635Z" data-name="Path 104" transform="translate(-27.65 -35.172)" class="colorStrokefff svgStroke"></path><path fill="none" stroke="#000000" stroke-width=".25" d="M280.548,145.1h0l-80.694,40.351h0l-1.684.838v61.36l80.7-40.343,3.359-1.684V144.26Z" data-name="Path 105" transform="translate(-34.219 -24.608)" class="colorStrokefff svgStroke"></path><path fill="none" stroke="#000000" stroke-width=".25" d="M280.894,145.27h0L200.2,185.621h0Z" data-name="Path 106" transform="translate(-34.565 -24.781)" class="colorStrokefff svgStroke"></path><path fill="none" stroke="#000000" stroke-width=".25" d="M78.59,114.87,108.847,130v-.158l-6.718-3.2L78.59,114.87" data-name="Path 107" transform="translate(-13.821 -19.595)" class="colorStrokefff svgStroke"></path><path fill="none" stroke="#000000" stroke-width=".25" d="M78.59,216.622l31.941,15.933v-37.7h-1.684L78.59,179.73Z" data-name="Path 108" transform="translate(-13.821 -30.659)" class="colorStrokefff svgStroke"></path><path fill="none" stroke="#000000" stroke-width=".25" d="M.5,177.731l27.777,13.86V154.665L1.379,141.22H.5Z" data-name="Path 109" transform="translate(-.5 -24.09)" class="colorStrokefff svgStroke"></path><path fill="none" stroke="#000000" stroke-width=".25" d="M68.307,211.481V174.589l-6.727-3.359L38.05,159.46v36.926Z" data-name="Path 110" transform="translate(-6.905 -27.201)" class="colorStrokefff svgStroke"></path><path fill="none" stroke="#000000" stroke-width=".25" d="M198.17,260.267h3.367l80.694-40.343V218.24l-3.359,1.684Z" data-name="Path 111" transform="translate(-34.219 -37.228)" class="colorStrokefff svgStroke"></path><path fill="none" stroke="#000000" stroke-width=".25" d="M.5,141.13h.879L.5,140.69Z" data-name="Path 112" transform="translate(-.5 -23.999)" class="colorStrokefff svgStroke"></path><path fill="none" stroke="#000000" stroke-width=".25" d="M129.151,286.392l1.675-1.684v-5.043l-1.675-1.684L.5,213.66V253.6l95.026,47.907H97.21l1.675-.788Z" data-name="Path 113" transform="translate(-.5 -36.447)" class="colorStrokefff svgStroke"></path><path fill="none" stroke="#000000" stroke-width=".25" d="M115.07,133.078l1.684,1.684v-1.037l-1.684-.8Z" data-name="Path 114" transform="translate(-20.044 -22.674)" class="colorStrokefff svgStroke"></path><path fill="none" stroke="#000000" stroke-width=".25" d="M.5,116.106l95.026,47.517,1.684,1.684V133.689H95.526V130L65.269,114.87" data-name="Path 115" transform="translate(-.5 -19.595)" class="colorStrokefff svgStroke"></path><path fill="none" stroke="#000000" stroke-width=".25" d="M115.07,136.8h1.684v-2.007l-1.684-1.684Z" data-name="Path 116" transform="translate(-20.044 -22.706)" class="colorStrokefff svgStroke"></path><path fill="none" stroke="#000000" stroke-width=".25" d="M117.1,113.78v63.1h1.675l30.265,15.137,1.675,1.675V113.78" data-name="Path 117" transform="translate(-20.39 -19.409)" class="colorStrokefff svgStroke"></path><path fill="none" stroke="#000000" stroke-width=".25" d="M165.671,204.269,152.4,210.9h-1.684v70.608l-1.675,1.684L117.1,298.317v8.41l1.675-1.684,63.89-31.941h1.675V194.93Z" data-name="Path 118" transform="translate(-20.39 -33.252)" class="colorStrokefff svgStroke"></path><path fill="none" stroke="#000000" stroke-width=".25" d="M118.775,315.682l-1.675.788,31.941-15.12Z" data-name="Path 119" transform="translate(-20.39 -51.405)" class="colorStrokefff svgStroke"></path><path fill="none" stroke="#000000" stroke-width=".25" d="M319.79,113.78v11.827l23.647-11.827" data-name="Path 120" transform="translate(-54.965 -19.409)" class="colorStrokefff svgStroke"></path><path fill="none" stroke="#000000" stroke-width=".25" d="M157.63,113.78v79.914l1.684-1.675,30.265-15.137h0l1.675-.838V113.78" data-name="Path 121" transform="translate(-27.304 -19.409)" class="colorStrokefff svgStroke"></path><path fill="none" stroke="#000000" stroke-width=".25" d="M351.731,114.684,319.79,130.659v77.327l1.684.846v-1.684l30.257-15.129h1.684V113.78" data-name="Path 122" transform="translate(-54.965 -19.409)" class="colorStrokefff svgStroke"></path><path fill="none" stroke="#000000" stroke-width=".25" d="M321.474,228.206h0l-1.684-.846v.846Z" data-name="Path 123" transform="translate(-54.965 -38.784)" class="colorStrokefff svgStroke"></path><path fill="none" stroke="#000000" stroke-width=".25" d="M282.231,116.89v1.684l-80.694,40.351H198.17v17.65L298.488,126.42l-1.128-1.12-13.445-6.727-1.684-1.684" data-name="Path 124" transform="translate(-34.219 -19.939)" class="colorStrokefff svgStroke"></path><path fill="none" stroke="#000000" stroke-width=".25" d="M37.357,159.114,33.99,157.43v36.926l3.367,1.684Z" data-name="Path 125" transform="translate(-6.213 -26.855)" class="colorStrokefff svgStroke"></path><path fill="none" stroke="#000000" stroke-width=".25" d="M77.9,216.276V179.384L74.53,177.7v36.892Z" data-name="Path 126" transform="translate(-13.128 -30.313)" class="colorStrokefff svgStroke"></path><path fill="none" stroke="#000000" stroke-width=".25" d="M299.52,203.892H301.2l15.129,7.564V134.13l-16.812,8.4Z" data-name="Path 127" transform="translate(-51.508 -22.88)" class="colorStrokefff svgStroke"></path><path fill="none" stroke="#000000" stroke-width=".25" d="M299.52,218.24l1.684,1.684,13.445,6.727h1.684V225.8L301.2,218.24Z" data-name="Path 128" transform="translate(-51.508 -37.228)" class="colorStrokefff svgStroke"></path><path fill="none" stroke="#000000" stroke-width=".25" d="M301.55,116.359l13.445,6.727,1.684,1.684V113.78" data-name="Path 129" transform="translate(-51.854 -19.409)" class="colorStrokefff svgStroke"></path><path fill="none" stroke="#000000" stroke-width=".25" d="M299.52,116.89l1.684,1.684,13.445,6.727,1.128,1.12.556-.282V125.3l-1.684-1.684L301.2,116.89" data-name="Path 130" transform="translate(-51.508 -19.939)" class="colorStrokefff svgStroke"></path><path fill="none" stroke="#000000" stroke-width=".25" d="M198.17,113.78v44.614h3.367l80.694-40.351v-1.684" data-name="Path 131" transform="translate(-34.219 -19.409)" class="colorStrokefff svgStroke"></path><path fill="none" stroke="#000000" stroke-width=".25" d="M118.775,321.121,117.1,322.8h1.675l63.89-31.941,1.675-1.684h-1.675Z" data-name="Path 132" transform="translate(-20.39 -49.329)" class="colorStrokefff svgStroke"></path><path fill="none" stroke="#000000" stroke-width=".25" d="M352.077,202.87,321.82,218.007,385.7,249.948l1.684,1.675v5.043h1.675l63.89-31.941,1.675-1.675v-5.043l-1.675-1.684L355.445,167.57h-1.684v33.625Z" data-name="Path 133" transform="translate(-55.312 -28.585)" class="colorStrokefff svgStroke"></path><path fill="none" stroke="#000000" stroke-width=".25" d="M321.82,230.055,385.7,262h1.684l-1.684-1.675L321.82,228.38h0Z" data-name="Path 134" transform="translate(-55.312 -38.958)" class="colorStrokefff svgStroke"></path><path fill="none" stroke="#000000" stroke-width=".25" d="M352.077,209.785l1.684-1.675h-1.684L321.82,223.239v1.684h0Z" data-name="Path 135" transform="translate(-55.312 -35.5)" class="colorStrokefff svgStroke"></path><path fill="none" stroke="#000000" stroke-width=".25" d="M199.854,193.92H198.17v.838Z" data-name="Path 136" transform="translate(-34.219 -33.079)" class="colorStrokefff svgStroke"></path><path fill="none" stroke="#000000" stroke-width=".25" d="M299.174,143.24l-1.684,1.684,1.684-.838Z" data-name="Path 137" transform="translate(-51.161 -24.434)" class="colorStrokefff svgStroke"></path><path fill="none" stroke="#000000" stroke-width=".25" d="M309.284,113.78l-24.07,12.673-1.684,1.675-94.147,47.078-3.359,1.675h-3.359L152.4,192.019l-1.684,1.675L117.1,176.882v3.367l1.675,1.675,30.265,15.137H152.4l3.359-1.684,9.912-4.952,16.995-8.5,1.675-1.675h1.684L266.719,139.9l1.684-1.684h1.684l13.445-6.718,1.684-1.684H286.9l30.257-15.129" data-name="Path 138" transform="translate(-20.39 -19.409)" class="colorStrokefff svgStroke"></path><path fill="none" stroke="#000000" stroke-width=".25" d="M118.775,189.86H117.1l33.616,16.812L149.041,205Z" data-name="Path 139" transform="translate(-20.39 -32.387)" class="colorStrokefff svgStroke"></path><path fill="none" stroke="#000000" stroke-width=".25" d="M194.33,193.92l-1.675,1.675-16.995,8.5,18.67-9.339Z" data-name="Path 140" transform="translate(-30.379 -33.079)" class="colorStrokefff svgStroke"></path><path fill="none" stroke="#000000" stroke-width=".25" d="M343.437,113.78,319.79,125.607v.846l24.07-12.673" data-name="Path 141" transform="translate(-54.965 -19.409)" class="colorStrokefff svgStroke"></path><path fill="none" stroke="#000000" stroke-width=".25" d="M196.15,189.688h1.675v-.838Z" data-name="Path 142" transform="translate(-33.875 -32.215)" class="colorStrokefff svgStroke"></path><path fill="none" stroke="#000000" stroke-width=".25" d="M351.731,114.87,321.474,130H319.79v.846l31.941-15.975" data-name="Path 143" transform="translate(-54.965 -19.595)" class="colorStrokefff svgStroke"></path><path fill="none" stroke="#000000" stroke-width=".25" d="M198.17,178.535v.838h1.684l3.359-1.675,94.147-47.078,1.684-1.675-.556-.564Z" data-name="Path 144" transform="translate(-34.219 -21.899)" class="colorStrokefff svgStroke"></path><path fill="none" stroke="#000000" stroke-width=".25" d="M314.649,134.794,301.2,141.512H299.52v.846l16.812-8.4v-.846Z" data-name="Path 145" transform="translate(-51.508 -22.706)" class="colorStrokefff svgStroke"></path><path fill="none" stroke="#000000" stroke-width=".25" d="M319.12,128.322l.556.564v-.846Z" data-name="Path 146" transform="translate(-54.851 -21.841)" class="colorStrokefff svgStroke"></path><path fill="none" stroke="#000000" stroke-width=".25" d="M97.21,196.884v36.984L65.269,218.531v1.178H61.9v-2.8L31.645,202.383v.514H28.277v-2.132L.5,187.42v21.764l128.651,64.321,1.675,1.684V209.624h-1.675L98.885,194.487l-1.675-1.675v4.072Z" data-name="Path 147" transform="translate(-.5 -31.971)" class="colorStrokefff svgStroke"></path><path fill="none" stroke="#000000" stroke-width=".25" d="M78.59,224.807l31.941,15.336L78.59,224.21Z" data-name="Path 148" transform="translate(-13.821 -38.246)" class="colorStrokefff svgStroke"></path><path fill="none" stroke="#000000" stroke-width=".25" d="M38.05,203.98v1.228l30.257,14.531v-.664Z" data-name="Path 149" transform="translate(-6.905 -34.795)" class="colorStrokefff svgStroke"></path><path fill="none" stroke="#000000" stroke-width=".25" d="M.5,185.24v1.808l27.777,13.345V199.1Z" data-name="Path 150" transform="translate(-.5 -31.599)" class="colorStrokefff svgStroke"></path><path fill="none" stroke="#000000" stroke-width=".25" d="M33.99,205.642h3.367v-.514L33.99,203.51Z" data-name="Path 151" transform="translate(-6.213 -34.715)" class="colorStrokefff svgStroke"></path><path fill="none" stroke="#000000" stroke-width=".25" d="M33.99,201.95v1.294l3.367,1.617v-1.228Z" data-name="Path 152" transform="translate(-6.213 -34.449)" class="colorStrokefff svgStroke"></path><path fill="none" stroke="#000000" stroke-width=".25" d="M74.53,225.775H77.9V224.6L74.53,222.98Z" data-name="Path 153" transform="translate(-13.128 -38.037)" class="colorStrokefff svgStroke"></path><path fill="none" stroke="#000000" stroke-width=".25" d="M74.53,222.18v.664l3.367,1.617v-.6Z" data-name="Path 154" transform="translate(-13.128 -37.9)" class="colorStrokefff svgStroke"></path><path fill="none" stroke="#000000" stroke-width=".25" d="M.5,116.36v20.18l.879.44,26.9,13.445h3.367v1.684L61.9,167.236h3.367v1.684l30.257,15.129H97.21V165.561l-1.684-1.684L.5,116.36" data-name="Path 155" transform="translate(-.5 -19.849)" class="colorStrokefff svgStroke"></path><path fill="none" stroke="#000000" stroke-width=".25" d="M108.847,194.859,78.59,179.73h0Z" data-name="Path 156" transform="translate(-13.821 -30.659)" class="colorStrokefff svgStroke"></path><path fill="none" stroke="#000000" stroke-width=".25" d="M28.458,154.665,1.56,141.22l26.9,13.445Z" data-name="Path 157" transform="translate(-.681 -24.09)" class="colorStrokefff svgStroke"></path><path fill="none" stroke="#000000" stroke-width=".25" d="M61.581,171.229l6.727,3.359h0L38.05,159.46h0Z" data-name="Path 158" transform="translate(-6.905 -27.201)" class="colorStrokefff svgStroke"></path><path fill="none" stroke="#000000" stroke-width=".25" d="M1.379,141.13.5,140.69h0Z" data-name="Path 159" transform="translate(-.5 -23.999)" class="colorStrokefff svgStroke"></path><path fill="none" stroke="#000000" stroke-width=".25" d="M37.357,157.43H33.99l3.367,1.684Z" data-name="Path 160" transform="translate(-6.213 -26.855)" class="colorStrokefff svgStroke"></path><path fill="none" stroke="#000000" stroke-width=".25" d="M37.357,159.114h0L33.99,157.43h0Z" data-name="Path 161" transform="translate(-6.213 -26.855)" class="colorStrokefff svgStroke"></path><path fill="none" stroke="#000000" stroke-width=".25" d="M77.9,177.7H74.53l3.367,1.684Z" data-name="Path 162" transform="translate(-13.128 -30.313)" class="colorStrokefff svgStroke"></path><path fill="none" stroke="#000000" stroke-width=".25" d="M74.53,177.7l3.367,1.684h0L74.53,177.7Z" data-name="Path 163" transform="translate(-13.128 -30.313)" class="colorStrokefff svgStroke"></path><path fill="none" stroke="#000000" stroke-width=".25" d="M78.59,114.684l23.539,11.769,6.718,3.2V113.78" data-name="Path 164" transform="translate(-13.821 -19.409)" class="colorStrokefff svgStroke"></path><path fill="none" stroke="#000000" stroke-width=".25" d="M115.07,113.78v15.875l1.684.8V113.78" data-name="Path 165" transform="translate(-20.044 -19.409)" class="colorStrokefff svgStroke"></path><path fill="none" stroke="#000000" stroke-width=".25" d="M.5,261.828l91.667,46.223,3.359,1.675L.5,261.82Z" data-name="Path 166" transform="translate(-.5 -44.662)" class="colorStrokefff svgStroke"></path><path fill="none" stroke="#000000" stroke-width=".25" d="M413.323,65.12l-158.153,73.5,31.493,14.631L413.323,94.39" data-name="Path 167" transform="translate(-43.942 -11.108)" class="colorStrokefff svgStroke"></path><path fill="none" stroke="#000000" stroke-width=".25" d="M.5,261.83v13.843l48.479,24.244V286.281Z" data-name="Path 168" transform="translate(-.5 -44.664)" class="colorStrokefff svgStroke"></path><path fill="none" stroke="#000000" stroke-width=".25" d="M58.95,306.96v21.722h43.445Z" data-name="Path 169" transform="translate(-10.471 -52.362)" class="colorStrokefff svgStroke"></path><path fill="none" stroke="#000000" stroke-width=".25" d="M425.757,223.846l-58.723-29.66v-5.068L328.06,169.95v52.079l58.706,29.353h1.684v5.043l-1.684,1.675L328.06,287.462v1.269l8.1-4.048v20.628H413.39l12.367-5.748Z" data-name="Path 170" transform="translate(-56.376 -28.991)" class="colorStrokefff svgStroke"></path><path fill="none" stroke="#000000" stroke-width=".25" d="M286.728,209.539l1.684,1.684,13.445,6.727h3.367v1.675l5.176,2.6V170.141l-5.922-2.911L224.53,207.208v35.109l62.2-31.095Z" data-name="Path 171" transform="translate(-38.716 -28.527)" class="colorStrokefff svgStroke"></path><path fill="none" stroke="#000000" stroke-width=".25" d="M320.718,312.9V311.63l-35.7,17.849h27.852V316.822Z" data-name="Path 172" transform="translate(-49.034 -53.159)" class="colorStrokefff svgStroke"></path><path fill="none" stroke="#000000" stroke-width=".25" d="M328.06,312.328v16.58h8.1V308.28Z" data-name="Path 173" transform="translate(-56.376 -52.587)" class="colorStrokefff svgStroke"></path><path fill="none" stroke="#000000" stroke-width=".25" d="M326.446,313.16l-7.846,3.923V329.74h7.846Z" data-name="Path 174" transform="translate(-54.762 -53.42)" class="colorStrokefff svgStroke"></path><path fill="none" stroke="#000000" stroke-width=".25" d="M433.773,228.569V222.73L375.05,193.85v5.068Z" data-name="Path 175" transform="translate(-64.392 -33.067)" class="colorStrokefff svgStroke"></path><path fill="none" stroke="#000000" stroke-width=".25" d="M326.842,163.66l-5.922,2.961,5.922,2.911Z" data-name="Path 176" transform="translate(-55.158 -27.918)" class="colorStrokefff svgStroke"></path><path fill="none" stroke="#000000" stroke-width=".25" d="M79.34,48.41l200.371,98.551L285.633,144v5.872l38.974,19.168v-4.3L383.33,194.4V102.753" data-name="Path 177" transform="translate(-13.949 -8.258)" class="colorStrokefff svgStroke"></path><path fill="none" stroke="#000000" stroke-width=".25" d="M433.773,218.322,375.05,188.67v4.3l58.723,28.88Z" data-name="Path 178" transform="translate(-64.392 -32.184)" class="colorStrokefff svgStroke"></path><path fill="none" stroke="#000000" stroke-width=".25" d="M443.307,326.22l-12.367,5.748h12.367Z" data-name="Path 179" transform="translate(-73.926 -55.648)" class="colorStrokefff svgStroke"></path><path fill="none" stroke="#000000" stroke-width=".25" d="M206.506,287.146,208.787,286v2.289l11.247,5.615V257.76l-18.5,9.248H198.17V283.82h1.684Z" data-name="Path 180" transform="translate(-34.219 -43.969)" class="colorStrokefff svgStroke"></path><path fill="none" stroke="#000000" stroke-width=".25" d="M268.24,308.23l1.675,1.684v3.5H274.7l35.7-17.849V230.132l-5.176-2.588V225.86h-3.367l-13.445-6.727-1.684-1.684v1.684l-62.2,31.095v36.154Z" data-name="Path 181" transform="translate(-38.716 -37.093)" class="colorStrokefff svgStroke"></path><path fill="none" stroke="#000000" stroke-width=".25" d="M210.5,291.81l-2.281,1.145L210.5,294.1Z" data-name="Path 182" transform="translate(-35.933 -49.778)" class="colorStrokefff svgStroke"></path><path fill="none" stroke="#000000" stroke-width=".25" d="M146.65,330.63h52.071l-27.57-12.25Z" data-name="Path 183" transform="translate(-25.431 -54.31)" class="colorStrokefff svgStroke"></path><path fill="none" stroke="#000000" stroke-width=".25" d="M192.677,291.718l-6.652-3.318h-1.684l-1.675,1.675-63.89,31.941H117.1v3.5h7.987Z" data-name="Path 184" transform="translate(-20.39 -49.196)" class="colorStrokefff svgStroke"></path><path fill="none" stroke="#000000" stroke-width=".25" d="M210.97,293.78v32.654h11.247V299.4Z" data-name="Path 185" transform="translate(-36.403 -50.114)" class="colorStrokefff svgStroke"></path><path fill="none" stroke="#000000" stroke-width=".25" d="M268.24,322.407,224.53,300.56v27.031h45.386v-3.5Z" data-name="Path 186" transform="translate(-38.716 -51.27)" class="colorStrokefff svgStroke"></path><path fill="none" stroke="#000000" stroke-width=".25" d="M176.19,315.414l27.57,12.25h1.277V300.99Z" data-name="Path 187" transform="translate(-30.47 -51.344)" class="colorStrokefff svgStroke"></path><path fill="none" stroke="#000000" stroke-width=".25" d="M196.6,299.525v-5.98l-2.281-1.145L126.73,326.2h16.522l24.5-12.25Z" data-name="Path 188" transform="translate(-22.033 -49.878)" class="colorStrokefff svgStroke"></path><path fill="none" stroke="#000000" stroke-width=".25" d="M107.181,325.878v-11.9H105.5l-3.359-1.684L58.95,290.52v13.636l43.445,21.723Z" data-name="Path 189" transform="translate(-10.471 -49.558)" class="colorStrokefff svgStroke"></path><path fill="none" stroke="#000000" stroke-width=".25" d="M595.68,310.581,575.658,300.47l-.008,27.105h25.38" data-name="Path 190" transform="translate(-98.611 -51.255)" class="colorStrokefff svgStroke"></path><path fill="none" stroke="#000000" stroke-width=".25" d="M532.383,313.177l6.378,3.218h14.747V289.29L445.85,234.93v75.717l8.684-4.031,21.051,9.779H500.84l-29.66-13.777v-3.691L508.77,316.4h26.757l-3.143-1.584Z" data-name="Path 191" transform="translate(-76.469 -40.075)" class="colorStrokefff svgStroke"></path><path fill="none" stroke="#000000" stroke-width=".25" d="M445.85,107.079l107.658,53.2V73.77" data-name="Path 192" transform="translate(-76.469 -12.584)" class="colorStrokefff svgStroke"></path><path fill="none" stroke="#000000" stroke-width=".25" d="M550.18,329.27V330.9l3.143,1.584h3.235Z" data-name="Path 193" transform="translate(-94.266 -56.168)" class="colorStrokefff svgStroke"></path><path fill="none" stroke="#000000" stroke-width=".25" d="M575.668,113.78l-.008,53.332,52.975,26.176" data-name="Path 194" transform="translate(-98.612 -19.409)" class="colorStrokefff svgStroke"></path><path fill="none" stroke="#000000" stroke-width=".25" d="M553.508,281.62,445.85,228.67v5.839l107.658,54.36Z" data-name="Path 195" transform="translate(-76.469 -39.007)" class="colorStrokefff svgStroke"></path><path fill="none" stroke="#000000" stroke-width=".25" d="M596.868,302.944,575.66,292.51v7.257l20.022,10.111" data-name="Path 196" transform="translate(-98.612 -49.897)" class="colorStrokefff svgStroke"></path><path fill="none" stroke="#000000" stroke-width=".25" d="M445.85,113.93v91.642l107.658,54.36v-92.8L445.85,113.93" data-name="Path 197" transform="translate(-76.469 -19.435)" class="colorStrokefff svgStroke"></path><path fill="none" stroke="#000000" stroke-width=".25" d="M628.635,204.256,575.66,178.08v92.8L598.1,282.205" data-name="Path 198" transform="translate(-98.612 -30.377)" class="colorStrokefff svgStroke"></path><path fill="none" stroke="#000000" stroke-width=".25" d="M553.508,280.9V278.78L445.85,224.42v3.525Z" data-name="Path 199" transform="translate(-76.469 -38.282)" class="colorStrokefff svgStroke"></path><path fill="none" stroke="#000000" stroke-width=".25" d="M598.1,301.292,575.66,289.97v2.107l21.208,10.434" data-name="Path 200" transform="translate(-98.612 -49.464)" class="colorStrokefff svgStroke"></path><path fill="none" stroke="#000000" stroke-width=".25" d="M476.39,315.781l29.66,13.777h7.929L476.39,312.09Z" data-name="Path 201" transform="translate(-81.679 -53.237)" class="colorStrokefff svgStroke"></path><path fill="none" stroke="#000000" stroke-width=".25" d="M445.85,325.391v5.748h29.735l-21.051-9.779Z" data-name="Path 202" transform="translate(-76.469 -54.818)" class="colorStrokefff svgStroke"></path><path fill="none" stroke="#000000" stroke-width=".25" d="M575.65,73.77v86.508l.008.008.008-53.332" data-name="Path 203" transform="translate(-98.611 -12.584)" class="colorStrokefff svgStroke"></path><rect height="27.105" fill="none" stroke="#000000" stroke-width=".25" data-name="Rectangle 10" transform="translate(477.039 249.215)" class="colorStrokefff svgStroke"></rect><rect width=".008" height="7.249" fill="none" stroke="#000000" stroke-width=".25" data-name="Rectangle 11" transform="translate(477.039 242.613)" class="colorStrokefff svgStroke"></rect><path fill="none" stroke="#000000" stroke-width=".25" d="M575.65,270.873l.008.008v-92.8l-.008-.008Z" data-name="Path 204" transform="translate(-98.611 -30.376)" class="colorStrokefff svgStroke"></path><rect width=".008" height="2.115" fill="none" stroke="#000000" stroke-width=".25" data-name="Rectangle 12" transform="translate(477.039 240.506)" class="colorStrokefff svgStroke"></rect><path fill="none" stroke="#000000" stroke-width=".25" d="M292.622,561.888v-69.6l.091-.05,35.54-17.484V465.1l-8.1,4.048-.241.116V446.458l-.2-.1.2-.108V429.6l-2.82-1.41-.083-.041v-.647l.083-.041,2.82-1.418v-2.239l-.2-.091.2-.108v-.191l-15.543-7.332v16.837l-.232-.124-19.359-9.679-.091-.058V406.787L233.75,382.75V620.643" data-name="Path 205" transform="translate(-40.288 -65.291)" class="colorStrokefff svgStroke"></path><path fill="none" stroke="#000000" stroke-width=".25" d="M236.1,563.809V535.028l.083-.042,28.69-14.341.232-.116v28.938" data-name="Path 206" transform="translate(-40.689 -88.793)" class="colorStrokefff svgStroke"></path><path fill="none" stroke="#000000" stroke-width=".25" d="M292.816,435.038l.033-.008h.954l.033.008,16.613,8.311.025.017.025.008.431.448.05.041v1.451l-.05.042-.431.44-.025.025-.025.008-16.613,8.3-.033.025h-.954l-.033-.025-16.613-8.3-.017-.008-.025-.025-.44-.44-.041-.042v-1.451l.041-.041.44-.448.025-.008.017-.017Z" data-name="Path 207" transform="translate(-47.441 -74.209)" class="colorStrokefff svgStroke"></path><path fill="none" stroke="#000000" stroke-width=".25" d="M239.77,427.008v-.979l.083-.041,16.622-8.311.041-.017h.3v-1.31h.647l.041.017,16.6,8.3.025.008.017.025.448.44.041.041v1.451l-.041.041-.448.44-.017.025-.025.008-25.355,12.69-.033.008h-.647V431.1h-.307l-.033-.008-7.879-3.94-.083-.05Z" data-name="Path 208" transform="translate(-41.315 -71.022)" class="colorStrokefff svgStroke"></path><path fill="none" stroke="#000000" stroke-width=".25" d="M236.06,495.448V466.51l.232.116,28.631,14.307.174-.083v29.038l-.042.017v.149l-.141-.075-28.59,14.3-.232.116V495.565l-.033-.017Z" data-name="Path 209" transform="translate(-40.683 -79.579)" class="colorStrokefff svgStroke"></path><path fill="none" stroke="#000000" stroke-width=".25" d="M597.339,374.823H575.99V368.71" data-name="Path 210" transform="translate(-98.669 -62.896)" class="colorStrokefff svgStroke"></path><line x2="33.591" y1="16.796" fill="none" stroke="#000000" stroke-width=".25" data-name="Line 20" transform="translate(477.321 289.019)" class="colorStrokefff svgStroke"></line><path fill="none" stroke="#000000" stroke-width=".25" d="M511.83,363.5h9.53v4.769l-9.53-4.769" data-name="Path 211" transform="translate(-87.724 -62.007)" class="colorStrokefff svgStroke"></path><path fill="none" stroke="#000000" stroke-width=".25" d="M595.468,457.413,556.9,437.731l.423-.207-.083-.158.083.158,1.452-.73h.7v0h.166v-20.2h-.166v-.174H544.782v-7.266h-.158v-.158h-14.7v-7.266h-.166v-.158h-.771v-1.982l8.062,4.031.033.025h.481v0h.158V402.6h-.158l.108-.116-.108.116h.158v-.066l-.05-.05-.44-.44-.108.116.017-.025.091-.091-.008-.017-.025-.017-8.211-4.106V376.47h3.923l4.139,2.074.033.025h.481v0h.158v-1.053h0v-.058l-.05-.042-.44-.448-.1.108.008-.008.091-.1-.008-.008-.025-.017-.937-.473" data-name="Path 212" transform="translate(-90.651 -64.219)" class="colorStrokefff svgStroke"></path><path fill="none" stroke="#000000" stroke-width=".25" d="M596.009,404.63l-13.171,6.577h0l-.465.224-.083.05v.108h.158l-.075-.158.075.149v.008h-.158v7.83l.041.042.116-.116-.116.116.473.464.008.017.025.025,8.46,4.222" data-name="Path 213" transform="translate(-99.743 -69.023)" class="colorStrokefff svgStroke"></path><path fill="none" stroke="#000000" stroke-width=".25" d="M600.625,396.25l-17.833,8.916-.025.017-.025.017-.464.481-.058.041v.075h.166l-.108-.116.116.108-.008.008h-.166v1.087h.639v0h.033l.042-.008,17.691-8.85" data-name="Path 214" transform="translate(-99.731 -67.593)" class="colorStrokefff svgStroke"></path><path fill="none" stroke="#000000" stroke-width=".25" d="M597.68,392.61l-14.888,7.448-.025.008-.025.017.108.108-.108-.108-.464.464-.058.058v.066h0v1.1h.639v0h.033l.042-.008,16.522-8.269" data-name="Path 215" transform="translate(-99.731 -66.973)" class="colorStrokefff svgStroke"></path><path fill="none" stroke="#000000" stroke-width=".25" d="M593.193,389.9l-10.4,5.2-.025.017-.025.008.116.124-.116-.124-.464.473-.058.05v.066h0v1.1h.639v0h.033l.042-.017,12.027-6.013" data-name="Path 216" transform="translate(-99.731 -66.51)" class="colorStrokefff svgStroke"></path><path fill="none" stroke="#000000" stroke-width=".25" d="M537.76,376.47h9.862v9.912l.166-.158.971.962.041.041h21.623l.033-.008,7.183-3.591" data-name="Path 217" transform="translate(-92.147 -64.219)" class="colorStrokefff svgStroke"></path><path fill="none" stroke="#000000" stroke-width=".25" d="M529.92,406.73v.158h.166v-.158h-.166" data-name="Path 218" transform="translate(-90.81 -69.381)" class="colorStrokefff svgStroke"></path><path fill="none" stroke="#000000" stroke-width=".25" d="M547.84,415.68v.158H548v-.158h-.158" data-name="Path 219" transform="translate(-93.867 -70.908)" class="colorStrokefff svgStroke"></path><path fill="none" stroke="#000000" stroke-width=".25" d="M565.74,424.63v.174h.166v-.174h-.166" data-name="Path 220" transform="translate(-96.92 -72.435)" class="colorStrokefff svgStroke"></path><path fill="none" stroke="#000000" stroke-width=".25" d="M551.15,389.248v-.008l.008.008h-.008" data-name="Path 221" transform="translate(-94.431 -66.398)" class="colorStrokefff svgStroke"></path><path fill="none" stroke="#000000" stroke-width=".25" d="M551.02,389.371l.075-.091v.008l-.075.083" data-name="Path 222" transform="translate(-94.409 -66.404)" class="colorStrokefff svgStroke"></path><path fill="none" stroke="#000000" stroke-width=".25" d="M582.968,407.149,582.91,407l.066.149h-.008" data-name="Path 223" transform="translate(-99.849 -69.427)" class="colorStrokefff svgStroke"></path><path fill="none" stroke="#000000" stroke-width=".25" d="M582.91,423.046l.108-.116v.008h0l-.108.108" data-name="Path 224" transform="translate(-99.849 -72.145)" class="colorStrokefff svgStroke"></path><path fill="none" stroke="#000000" stroke-width=".25" d="M479.89,431.53v-7.78l3.558,1.783,5.914,2.953v7.448l-9.472-4.4" data-name="Path 225" transform="translate(-82.276 -72.285)" class="colorStrokefff svgStroke"></path><path fill="none" stroke="#000000" stroke-width=".25" d="M468.073,552.421V540.195l.216-.116-.216-.091v-4.968h-.166l.066-.158-.066.158h.166v-.108l-.1-.05-8-4V521.11l14.133,6.959.033.008h2.19v0h.166v-.158" data-name="Path 226" transform="translate(-78.878 -88.892)" class="colorStrokefff svgStroke"></path><path fill="none" stroke="#000000" stroke-width=".25" d="M479.81,514.913V444.86l9.472,4.4v51.183l-.05-.05v.39h0v12.076l-8.369,4.18H479.42v.166h0v20.379" data-name="Path 227" transform="translate(-82.195 -75.885)" class="colorStrokefff svgStroke"></path><path fill="none" stroke="#000000" stroke-width=".25" d="M564.848,449h0v.008h-.008l.008-.008" data-name="Path 228" transform="translate(-96.767 -76.592)" class="colorStrokefff svgStroke"></path><path fill="none" stroke="#000000" stroke-width=".25" d="M504.68,509.255V456.38L538.4,472.056V485.31l.1.033.066-.141-.066.141,7,3.5L504.68,509.255" data-name="Path 229" transform="translate(-86.504 -77.851)" class="colorStrokefff svgStroke"></path><path fill="none" stroke="#000000" stroke-width=".25" d="M446.38,524.083V514.42l9.829,4.844v1.651h0V528.7h0v.29l-4.28-2.14-3.824-1.9-1.725-.871" data-name="Path 230" transform="translate(-76.559 -87.751)" class="colorStrokefff svgStroke"></path><path fill="none" stroke="#000000" stroke-width=".25" d="M587.95,538.087,573.6,530.913h.158v0h.166v-3.882h-.174l-.066-.141-3.566,1.775-.066-.058-.116.116h-.166v.124l-3.525,1.758.083.307h3.442v1.111l-.149-.083-.042-.016h-2.687l-.041.016-1.675.846V531.4h-.166l-.066-.141-5.69,2.845.066.149-.066-.149-1.742.871.066.307h2.6l-3.243,1.626-.514-.257v-.871h0v-.266l-.232.116-.9.456-.116-.058v-2.322" data-name="Path 231" transform="translate(-95.119 -89.878)" class="colorStrokefff svgStroke"></path><path fill="none" stroke="#000000" stroke-width=".25" d="M555.18,533.326l17.36-8.676L575,525.878l.066.29h.5l17.725,8.858" data-name="Path 232" transform="translate(-95.119 -89.496)" class="colorStrokefff svgStroke"></path><path fill="none" stroke="#000000" stroke-width=".25" d="M577.49,526.864l.075.141h.166v-.265l-.241.124" data-name="Path 233" transform="translate(-98.925 -89.853)" class="colorStrokefff svgStroke"></path><path fill="none" stroke="#000000" stroke-width=".25" d="M572.77,528.62v.4h.166l.116-.116-.282-.282" data-name="Path 234" transform="translate(-98.119 -90.173)" class="colorStrokefff svgStroke"></path><path fill="none" stroke="#000000" stroke-width=".25" d="M566.95,532.136l.066.141h.166v-.257l-.232.116" data-name="Path 235" transform="translate(-97.127 -90.753)" class="colorStrokefff svgStroke"></path><path fill="none" stroke="#000000" stroke-width=".25" d="M569.333,533.129l-.083-.149.083.141v.008" data-name="Path 236" transform="translate(-97.519 -90.917)" class="colorStrokefff svgStroke"></path><path fill="none" stroke="#000000" stroke-width=".25" d="M333.19,540.41h0l.066.141-.066-.141" data-name="Path 237" transform="translate(-57.251 -92.185)" class="colorStrokefff svgStroke"></path><line y1="7.747" fill="none" stroke="#000000" stroke-width=".25" data-name="Line 21" transform="translate(433.951 453.218)" class="colorStrokefff svgStroke"></line><path fill="none" stroke="#000000" stroke-width=".25" d="M523.7,546.287l1.46-.7V553.3" data-name="Path 238" transform="translate(-89.749 -93.068)" class="colorStrokefff svgStroke"></path><path fill="none" stroke="#000000" stroke-width=".25" d="M504.62,554.327l12.889-6.187v7.8" data-name="Path 239" transform="translate(-86.494 -93.503)" class="colorStrokefff svgStroke"></path><path fill="none" stroke="#000000" stroke-width=".25" d="M453.233,571.066,339.594,514.251l-2.994-2.986v-8.974l2.994-2.986L453.233,442.49H459.2l113.638,56.815" data-name="Path 240" transform="translate(-57.833 -75.481)" class="colorStrokefff svgStroke"></path><line x1="86.069" y2="41.338" fill="none" stroke="#000000" stroke-width=".25" data-name="Line 22" transform="translate(441.872 429.696)" class="colorStrokefff svgStroke"></line><path fill="none" stroke="#000000" stroke-width=".25" d="M589.531,483.61l-43.038,21.515-15.062,7.531-1.07,1.07v11.836h1.07l83.912-41.952" data-name="Path 241" transform="translate(-90.885 -82.496)" class="colorStrokefff svgStroke"></path><line x1="126.942" y2="63.475" fill="none" stroke="#000000" stroke-width=".25" data-name="Line 23" transform="translate(429.381 396.967)" class="colorStrokefff svgStroke"></line><line x2="128.021" y1="64.545" fill="none" stroke="#000000" stroke-width=".25" data-name="Line 24" transform="translate(428.303 405.577)" class="colorStrokefff svgStroke"></line><path fill="none" stroke="#000000" stroke-width=".25" d="M586.194,502.316,583.2,499.33v-8.974l2.994-2.986" data-name="Path 242" transform="translate(-99.899 -83.137)" class="colorStrokefff svgStroke"></path><path fill="none" stroke="#000000" stroke-width=".25" d="M210.131,556.737l184.3-92.157,4.852-4.844V445.18l-4.852-4.844-184.3-92.157h-9.7l-184.3,92.157L11.27,445.18v14.556l4.852,4.844,184.3,92.157" data-name="Path 243" transform="translate(-2.337 -59.394)" class="colorStrokefff svgStroke"></path><path fill="none" stroke="#000000" stroke-width=".25" d="M207.89,553.023V528.53L295.261,570.5" data-name="Path 244" transform="translate(-35.877 -90.158)" class="colorStrokefff svgStroke"></path><path fill="none" stroke="#000000" stroke-width=".25" d="M215.62,573.31V547.1H217.8v26.21" data-name="Path 245" transform="translate(-37.196 -93.326)" class="colorStrokefff svgStroke"></path><path fill="none" stroke="#000000" stroke-width=".25" d="M351.2,576.815v-50.4l-.9.9-16.2,8.1h-.9v43.2" data-name="Path 246" transform="translate(-57.253 -89.798)" class="colorStrokefff svgStroke"></path><path fill="none" stroke="#000000" stroke-width=".25" d="M180.73,553.005l16.2-8.1h.9V587.2" data-name="Path 247" transform="translate(-31.244 -92.952)" class="colorStrokefff svgStroke"></path><path fill="none" stroke="#000000" stroke-width=".25" d="M217.78,587.2V544.91h.9l7.2,3.6.9.9v33.3" data-name="Path 248" transform="translate(-37.564 -92.952)" class="colorStrokefff svgStroke"></path><path fill="none" stroke="#000000" stroke-width=".25" d="M449.83,576.9,354.763,529.37h-5L254.71,576.9" data-name="Path 249" transform="translate(-43.864 -90.301)" class="colorStrokefff svgStroke"></path><path fill="none" stroke="#000000" stroke-width=".25" d="M195.177,633.433V526.09L118.39,564.9" data-name="Path 250" transform="translate(-20.61 -89.742)" class="colorStrokefff svgStroke"></path><path fill="none" stroke="#000000" stroke-width=".25" d="M205.037,478.31v27.246L176.19,491.133Z" data-name="Path 251" transform="translate(-30.47 -81.591)" class="colorStrokefff svgStroke"></path><path fill="none" stroke="#000000" stroke-width=".25" d="M107.44,467.651V459.39l57.022,28.515,28.847,14.424v8.253Z" data-name="Path 252" transform="translate(-18.742 -78.364)" class="colorStrokefff svgStroke"></path><path fill="none" stroke="#000000" stroke-width=".25" d="M205.037,430.52v27.246L176.19,443.343Z" data-name="Path 253" transform="translate(-30.47 -73.439)" class="colorStrokefff svgStroke"></path><path fill="none" stroke="#000000" stroke-width=".25" d="M107.44,419.861V411.6l57.022,28.515,28.847,14.424V462.8Z" data-name="Path 254" transform="translate(-18.742 -70.212)" class="colorStrokefff svgStroke"></path><path fill="none" stroke="#000000" stroke-width=".25" d="M205.037,382.74v27.238L176.19,395.555Z" data-name="Path 255" transform="translate(-30.47 -65.289)" class="colorStrokefff svgStroke"></path><path fill="none" stroke="#000000" stroke-width=".25" d="M107.44,372.073V363.82l57.022,28.507,28.847,14.424v8.261Z" data-name="Path 256" transform="translate(-18.742 -62.061)" class="colorStrokefff svgStroke"></path><path fill="none" stroke="#000000" stroke-width=".25" d="M318.6,396.052V363.92l15.941,7.971v32.132Z" data-name="Path 257" transform="translate(-54.762 -62.079)" class="colorStrokefff svgStroke"></path><path fill="none" stroke="#000000" stroke-width=".25" d="M318.6,447.822V415.69l15.941,7.971v32.132Z" data-name="Path 258" transform="translate(-54.762 -70.91)" class="colorStrokefff svgStroke"></path><path fill="none" stroke="#000000" stroke-width=".25" d="M315.582,578.272l87.769-44.125V532.7L347.1,504.57h-2.422L256.42,548.206" data-name="Path 259" transform="translate(-44.156 -86.071)" class="colorStrokefff svgStroke"></path><path fill="none" stroke="#000000" stroke-width=".25" d="M463.44,562.7l39.688-18.438V540.58L463.44,559.018" data-name="Path 260" transform="translate(-79.47 -92.214)" class="colorStrokefff svgStroke"></path><path fill="none" stroke="#000000" stroke-width=".25" d="M476.26,355.908l35.715,16.6,39.679-18.438-35.715-16.6Z" data-name="Path 261" transform="translate(-81.657 -57.567)" class="colorStrokefff svgStroke"></path><path fill="none" stroke="#000000" stroke-width=".25" d="M259.46,411.608l75.162,37.581h2.6l127-63.5v-2.6L386.46,345.52l-127,63.5Z" data-name="Path 262" transform="translate(-44.674 -58.94)" class="colorStrokefff svgStroke"></path><path fill="none" stroke="#000000" stroke-width=".25" d="M603.986,425.6l-91.933,45.975v2.588l12.035,6.022-34.86,17.426h-2.6l-31.178-15.585,91.966-45.983v-2.588l-23.331-11.67H521.5l-93.26,46.63-16.771-8.385V457.44l127-63.5L603.986,425.6" data-name="Path 263" transform="translate(-70.604 -67.199)" class="colorStrokefff svgStroke"></path><path fill="none" stroke="#000000" stroke-width=".25" d="M159.66,461.46,189.925,476.6h0Z" data-name="Path 264" transform="translate(-27.65 -78.717)" class="colorStrokefff svgStroke"></path><path fill="none" stroke="#000000" stroke-width=".25" d="M163.019,457.065l-3.359-1.675,13.271,6.635Z" data-name="Path 265" transform="translate(-27.65 -77.682)" class="colorStrokefff svgStroke"></path><path fill="none" stroke="#000000" stroke-width=".25" d="M280.548,503.209h0l-80.694-40.351h0l-1.684-.838V400.66L278.872,441l3.359,1.684v61.36Z" data-name="Path 266" transform="translate(-34.219 -68.346)" class="colorStrokefff svgStroke"></path><path fill="none" stroke="#000000" stroke-width=".25" d="M280.894,516h0L200.2,475.65h0Z" data-name="Path 267" transform="translate(-34.565 -81.138)" class="colorStrokefff svgStroke"></path><path fill="none" stroke="#000000" stroke-width=".25" d="M78.59,551.589l30.257-15.129v.158l-6.718,3.2L78.59,551.589" data-name="Path 268" transform="translate(-13.821 -91.511)" class="colorStrokefff svgStroke"></path><path fill="none" stroke="#000000" stroke-width=".25" d="M78.59,442.091l31.941-15.941v37.7h-1.684L78.59,478.976Z" data-name="Path 269" transform="translate(-13.821 -72.694)" class="colorStrokefff svgStroke"></path><path fill="none" stroke="#000000" stroke-width=".25" d="M.5,481.48l27.777-13.86v36.926L1.379,518H.5Z" data-name="Path 270" transform="translate(-.5 -79.768)" class="colorStrokefff svgStroke"></path><path fill="none" stroke="#000000" stroke-width=".25" d="M68.307,447.39v36.892l-6.727,3.359L38.05,499.411V462.494Z" data-name="Path 271" transform="translate(-6.905 -76.317)" class="colorStrokefff svgStroke"></path><path fill="none" stroke="#000000" stroke-width=".25" d="M198.17,400.66h3.367L282.231,441v1.684L278.872,441Z" data-name="Path 272" transform="translate(-34.219 -68.346)" class="colorStrokefff svgStroke"></path><path fill="none" stroke="#000000" stroke-width=".25" d="M.5,528.36h.879l-.879.431Z" data-name="Path 273" transform="translate(-.5 -90.129)" class="colorStrokefff svgStroke"></path><path fill="none" stroke="#000000" stroke-width=".25" d="M129.151,365.109l1.675,1.684v5.043l-1.675,1.684L.5,437.84V397.9L95.526,349.98H97.21l1.675.8Z" data-name="Path 274" transform="translate(-.5 -59.701)" class="colorStrokefff svgStroke"></path><path fill="none" stroke="#000000" stroke-width=".25" d="M115.07,536.114l1.684-1.684v1.037l-1.684.8Z" data-name="Path 275" transform="translate(-20.044 -91.165)" class="colorStrokefff svgStroke"></path><path fill="none" stroke="#000000" stroke-width=".25" d="M.5,556.073v-12.98l95.026-47.517L97.21,493.9v31.6H95.526v3.7L65.269,544.329" data-name="Path 276" transform="translate(-.5 -84.251)" class="colorStrokefff svgStroke"></path><path fill="none" stroke="#000000" stroke-width=".25" d="M115.07,532h1.684v2.016L115.07,535.7Z" data-name="Path 277" transform="translate(-20.044 -90.75)" class="colorStrokefff svgStroke"></path><path fill="none" stroke="#000000" stroke-width=".25" d="M117.1,539.354v-63.1h1.675l30.265-15.137,1.675-1.675v79.914" data-name="Path 278" transform="translate(-20.39 -78.373)" class="colorStrokefff svgStroke"></path><path fill="none" stroke="#000000" stroke-width=".25" d="M165.671,442.315,152.4,435.679h-1.684V365.063l-1.675-1.684L117.1,348.25v-8.41l1.675,1.692,63.89,31.941h1.675v78.173Z" data-name="Path 279" transform="translate(-20.39 -57.971)" class="colorStrokefff svgStroke"></path><path fill="none" stroke="#000000" stroke-width=".25" d="M118.775,350.776l-1.675-.8,31.941,15.129Z" data-name="Path 280" transform="translate(-20.39 -59.701)" class="colorStrokefff svgStroke"></path><path fill="none" stroke="#000000" stroke-width=".25" d="M319.79,553.357V541.53l23.647,11.827" data-name="Path 281" transform="translate(-54.965 -92.376)" class="colorStrokefff svgStroke"></path><path fill="none" stroke="#000000" stroke-width=".25" d="M157.63,539.354V459.44l1.684,1.675,30.265,15.137h0l1.675.838v62.264" data-name="Path 282" transform="translate(-27.304 -78.373)" class="colorStrokefff svgStroke"></path><path fill="none" stroke="#000000" stroke-width=".25" d="M351.731,535.339,319.79,519.373V442.038l1.684-.838v1.675L351.731,458h1.684v78.239" data-name="Path 283" transform="translate(-54.965 -75.261)" class="colorStrokefff svgStroke"></path><path fill="none" stroke="#000000" stroke-width=".25" d="M321.474,441.2h0l-1.684.838V441.2Z" data-name="Path 284" transform="translate(-54.965 -75.261)" class="colorStrokefff svgStroke"></path><path fill="none" stroke="#000000" stroke-width=".25" d="M297.36,531.995l-13.445,6.727-1.684,1.684v-1.684L201.537,498.37H198.17V480.72l100.318,50.155Z" data-name="Path 285" transform="translate(-34.219 -82.003)" class="colorStrokefff svgStroke"></path><path fill="none" stroke="#000000" stroke-width=".25" d="M37.357,502.517,33.99,504.2V467.275l3.367-1.675Z" data-name="Path 286" transform="translate(-6.213 -79.423)" class="colorStrokefff svgStroke"></path><path fill="none" stroke="#000000" stroke-width=".25" d="M77.9,445.37v36.884l-3.367,1.684V447.045Z" data-name="Path 287" transform="translate(-13.128 -75.973)" class="colorStrokefff svgStroke"></path><path fill="none" stroke="#000000" stroke-width=".25" d="M299.52,449.774H301.2l15.129-7.564v77.335l-16.812-8.41Z" data-name="Path 288" transform="translate(-51.508 -75.433)" class="colorStrokefff svgStroke"></path><path fill="none" stroke="#000000" stroke-width=".25" d="M299.52,449.6l1.684-1.684,13.445-6.718h1.684v.838L301.2,449.6Z" data-name="Path 289" transform="translate(-51.508 -75.261)" class="colorStrokefff svgStroke"></path><path fill="none" stroke="#000000" stroke-width=".25" d="M299.52,553.53V550.95H301.2l13.445-6.727,1.684-1.684v10.99" data-name="Path 290" transform="translate(-51.508 -92.548)" class="colorStrokefff svgStroke"></path><path fill="none" stroke="#000000" stroke-width=".25" d="M314.649,542.31l1.128-1.12.556.282v.838l-1.684,1.684L301.2,550.72H299.52l1.684-1.684Z" data-name="Path 291" transform="translate(-51.508 -92.318)" class="colorStrokefff svgStroke"></path><path fill="none" stroke="#000000" stroke-width=".25" d="M198.17,546.614V502h3.367l80.694,40.351v4.263" data-name="Path 292" transform="translate(-34.219 -85.633)" class="colorStrokefff svgStroke"></path><path fill="none" stroke="#000000" stroke-width=".25" d="M118.775,341.532,117.1,339.84h1.675l63.89,31.949,1.675,1.684h-1.675Z" data-name="Path 293" transform="translate(-20.39 -57.971)" class="colorStrokefff svgStroke"></path><path fill="none" stroke="#000000" stroke-width=".25" d="M352.077,448.374,321.82,433.246,385.7,401.3l1.684-1.675V394.57h1.675l63.89,31.949,1.675,1.675v5.051l-1.675,1.675-97.506,48.753h-1.684V450.05Z" data-name="Path 294" transform="translate(-55.312 -67.307)" class="colorStrokefff svgStroke"></path><path fill="none" stroke="#000000" stroke-width=".25" d="M321.82,432.6,385.7,400.66h1.684l-1.684,1.675L321.82,434.285h0Z" data-name="Path 295" transform="translate(-55.312 -68.346)" class="colorStrokefff svgStroke"></path><path fill="none" stroke="#000000" stroke-width=".25" d="M352.077,456.329,353.761,458h-1.684L321.82,442.875V441.2h0Z" data-name="Path 296" transform="translate(-55.312 -75.261)" class="colorStrokefff svgStroke"></path><path fill="none" stroke="#000000" stroke-width=".25" d="M199.854,475.478H198.17v-.838Z" data-name="Path 297" transform="translate(-34.219 -80.965)" class="colorStrokefff svgStroke"></path><path fill="none" stroke="#000000" stroke-width=".25" d="M299.174,525.984,297.49,524.3l1.684.838Z" data-name="Path 298" transform="translate(-51.161 -89.437)" class="colorStrokefff svgStroke"></path><path fill="none" stroke="#000000" stroke-width=".25" d="M309.284,538.664l-24.07-12.673-1.684-1.675-94.147-47.069-3.359-1.684h-3.359L152.4,460.425l-1.684-1.675L117.1,475.561v-3.367l1.675-1.675,30.265-15.129H152.4l3.359,1.675,9.912,4.96,16.995,8.493,1.675,1.675h1.684l80.694,40.351,1.684,1.684h1.684l13.445,6.718,1.684,1.684H286.9l30.257,15.129" data-name="Path 299" transform="translate(-20.39 -77.682)" class="colorStrokefff svgStroke"></path><path fill="none" stroke="#000000" stroke-width=".25" d="M118.775,476.252H117.1l33.616-16.812-1.675,1.675Z" data-name="Path 300" transform="translate(-20.39 -78.373)" class="colorStrokefff svgStroke"></path><path fill="none" stroke="#000000" stroke-width=".25" d="M194.33,473.559l-1.675-1.675L175.66,463.39l18.67,9.331Z" data-name="Path 301" transform="translate(-30.379 -79.046)" class="colorStrokefff svgStroke"></path><path fill="none" stroke="#000000" stroke-width=".25" d="M343.437,553.184,319.79,541.356v-.846l24.07,12.674" data-name="Path 302" transform="translate(-54.965 -92.202)" class="colorStrokefff svgStroke"></path><path fill="none" stroke="#000000" stroke-width=".25" d="M196.15,479.71h1.675v.838Z" data-name="Path 303" transform="translate(-33.875 -81.83)" class="colorStrokefff svgStroke"></path><path fill="none" stroke="#000000" stroke-width=".25" d="M351.731,551.416l-30.257-15.129H319.79v-.838l31.941,15.966" data-name="Path 304" transform="translate(-54.965 -91.339)" class="colorStrokefff svgStroke"></path><path fill="none" stroke="#000000" stroke-width=".25" d="M198.17,480.548v-.838h1.684l3.359,1.684,94.147,47.069,1.684,1.675-.556.564Z" data-name="Path 305" transform="translate(-34.219 -81.83)" class="colorStrokefff svgStroke"></path><path fill="none" stroke="#000000" stroke-width=".25" d="M314.649,532.874,301.2,526.156H299.52v-.846l16.812,8.41v.838Z" data-name="Path 306" transform="translate(-51.508 -89.609)" class="colorStrokefff svgStroke"></path><path fill="none" stroke="#000000" stroke-width=".25" d="M319.12,541.074l.556-.564v.846Z" data-name="Path 307" transform="translate(-54.851 -92.202)" class="colorStrokefff svgStroke"></path><path fill="none" stroke="#000000" stroke-width=".25" d="M97.21,454.635V417.652L65.269,432.988V431.81H61.9v2.8l-30.257,14.54v-.523H28.277v2.132L.5,464.1V442.335l128.651-64.321,1.675-1.684V441.9h-1.675L98.885,457.032l-1.675,1.675v-4.072Z" data-name="Path 308" transform="translate(-.5 -64.195)" class="colorStrokefff svgStroke"></path><path fill="none" stroke="#000000" stroke-width=".25" d="M78.59,441.486l31.941-15.336L78.59,442.091Z" data-name="Path 309" transform="translate(-13.821 -72.694)" class="colorStrokefff svgStroke"></path><path fill="none" stroke="#000000" stroke-width=".25" d="M38.05,462.357V461.13l30.257-14.54v.664Z" data-name="Path 310" transform="translate(-6.905 -76.181)" class="colorStrokefff svgStroke"></path><path fill="none" stroke="#000000" stroke-width=".25" d="M.5,481.213v-1.808L28.277,466.06v1.294Z" data-name="Path 311" transform="translate(-.5 -79.502)" class="colorStrokefff svgStroke"></path><path fill="none" stroke="#000000" stroke-width=".25" d="M33.99,463.49h3.367v.523l-3.367,1.609Z" data-name="Path 312" transform="translate(-6.213 -79.063)" class="colorStrokefff svgStroke"></path><path fill="none" stroke="#000000" stroke-width=".25" d="M33.99,467.023v-1.294l3.367-1.609v1.228Z" data-name="Path 313" transform="translate(-6.213 -79.171)" class="colorStrokefff svgStroke"></path><path fill="none" stroke="#000000" stroke-width=".25" d="M74.53,443.22H77.9V444.4l-3.367,1.617Z" data-name="Path 314" transform="translate(-13.128 -75.606)" class="colorStrokefff svgStroke"></path><path fill="none" stroke="#000000" stroke-width=".25" d="M74.53,446.921v-.664L77.9,444.64v.605Z" data-name="Path 315" transform="translate(-13.128 -75.848)" class="colorStrokefff svgStroke"></path><path fill="none" stroke="#000000" stroke-width=".25" d="M95.526,491.771.5,539.289v-20.18l.879-.431,26.9-13.453h3.367v-1.675L61.9,488.412h3.367v-1.684L95.526,471.6H97.21v18.5Z" data-name="Path 316" transform="translate(-.5 -80.447)" class="colorStrokefff svgStroke"></path><path fill="none" stroke="#000000" stroke-width=".25" d="M108.847,471.6,78.59,486.729h0Z" data-name="Path 317" transform="translate(-13.821 -80.447)" class="colorStrokefff svgStroke"></path><path fill="none" stroke="#000000" stroke-width=".25" d="M28.458,512.14,1.56,525.593l26.9-13.453Z" data-name="Path 318" transform="translate(-.681 -87.362)" class="colorStrokefff svgStroke"></path><path fill="none" stroke="#000000" stroke-width=".25" d="M61.581,495.229l6.727-3.359h0L38.05,507.007V507Z" data-name="Path 319" transform="translate(-6.905 -83.905)" class="colorStrokefff svgStroke"></path><path fill="none" stroke="#000000" stroke-width=".25" d="M1.379,528.36l-.879.431h0Z" data-name="Path 320" transform="translate(-.5 -90.129)" class="colorStrokefff svgStroke"></path><path fill="none" stroke="#000000" stroke-width=".25" d="M37.357,511.8H33.99l3.367-1.675Z" data-name="Path 321" transform="translate(-6.213 -87.018)" class="colorStrokefff svgStroke"></path><path fill="none" stroke="#000000" stroke-width=".25" d="M37.357,510.11v.008l-3.367,1.675h0Z" data-name="Path 322" transform="translate(-6.213 -87.016)" class="colorStrokefff svgStroke"></path><path fill="none" stroke="#000000" stroke-width=".25" d="M77.9,491.524H74.53L77.9,489.84Z" data-name="Path 323" transform="translate(-13.128 -83.558)" class="colorStrokefff svgStroke"></path><path fill="none" stroke="#000000" stroke-width=".25" d="M74.53,491.524,77.9,489.84h0l-3.367,1.684Z" data-name="Path 324" transform="translate(-13.128 -83.558)" class="colorStrokefff svgStroke"></path><path fill="none" stroke="#000000" stroke-width=".25" d="M78.59,551.621l23.539-11.769,6.718-3.2v15.875" data-name="Path 325" transform="translate(-13.821 -91.543)" class="colorStrokefff svgStroke"></path><path fill="none" stroke="#000000" stroke-width=".25" d="M115.07,552.36V536.485l1.684-.8v16.68" data-name="Path 326" transform="translate(-20.044 -91.378)" class="colorStrokefff svgStroke"></path><path fill="none" stroke="#000000" stroke-width=".25" d="M.5,397.887l91.667-46.223,3.359-1.684L.5,397.9Z" data-name="Path 327" transform="translate(-.5 -59.701)" class="colorStrokefff svgStroke"></path><path fill="none" stroke="#000000" stroke-width=".25" d="M413.323,586.324l-158.153-73.5,31.493-14.631,126.66,58.864" data-name="Path 328" transform="translate(-43.942 -84.983)" class="colorStrokefff svgStroke"></path><path fill="none" stroke="#000000" stroke-width=".25" d="M.5,399.907V386.064L48.979,361.82v13.636Z" data-name="Path 329" transform="translate(-.5 -61.72)" class="colorStrokefff svgStroke"></path><path fill="none" stroke="#000000" stroke-width=".25" d="M58.95,358.142V336.42h43.445Z" data-name="Path 330" transform="translate(-10.471 -57.387)" class="colorStrokefff svgStroke"></path><path fill="none" stroke="#000000" stroke-width=".25" d="M425.757,417.894l-58.723,29.652v5.068L328.06,471.781V419.7l58.706-29.345h1.684v-5.051l-1.684-1.675L328.06,354.269V353l8.1,4.048V336.42H413.39l12.367,5.748Z" data-name="Path 331" transform="translate(-56.376 -57.387)" class="colorStrokefff svgStroke"></path><path fill="none" stroke="#000000" stroke-width=".25" d="M286.728,444.589l1.684-1.684,13.445-6.718h3.367V434.5l5.176-2.6v52.079l-5.922,2.911L224.53,446.919V411.81l62.2,31.095Z" data-name="Path 332" transform="translate(-38.716 -70.248)" class="colorStrokefff svgStroke"></path><path fill="none" stroke="#000000" stroke-width=".25" d="M320.718,353v1.269l-35.7-17.849h27.852v12.657Z" data-name="Path 333" transform="translate(-49.034 -57.387)" class="colorStrokefff svgStroke"></path><path fill="none" stroke="#000000" stroke-width=".25" d="M328.06,353V336.42h8.1v20.628Z" data-name="Path 334" transform="translate(-56.376 -57.387)" class="colorStrokefff svgStroke"></path><path fill="none" stroke="#000000" stroke-width=".25" d="M326.446,353l-7.846-3.923V336.42h7.846Z" data-name="Path 335" transform="translate(-54.762 -57.387)" class="colorStrokefff svgStroke"></path><path fill="none" stroke="#000000" stroke-width=".25" d="M433.773,433.86V439.7l-58.723,28.88v-5.068Z" data-name="Path 336" transform="translate(-64.392 -74.009)" class="colorStrokefff svgStroke"></path><path fill="none" stroke="#000000" stroke-width=".25" d="M326.842,504.7l-5.922-2.961,5.922-2.911Z" data-name="Path 337" transform="translate(-55.158 -85.092)" class="colorStrokefff svgStroke"></path><path fill="none" stroke="#000000" stroke-width=".25" d="M79.34,591.136l200.371-98.551,5.922,2.961v-5.872l38.974-19.168v4.3L383.33,445.15v91.642" data-name="Path 338" transform="translate(-13.949 -75.935)" class="colorStrokefff svgStroke"></path><path fill="none" stroke="#000000" stroke-width=".25" d="M433.773,444.425,375.05,474.077v-4.3l58.723-28.88Z" data-name="Path 339" transform="translate(-64.392 -75.21)" class="colorStrokefff svgStroke"></path><path fill="none" stroke="#000000" stroke-width=".25" d="M443.307,342.168,430.94,336.42h12.367Z" data-name="Path 340" transform="translate(-73.926 -57.387)" class="colorStrokefff svgStroke"></path><path fill="none" stroke="#000000" stroke-width=".25" d="M206.506,374.99l2.281,1.145v-2.289l11.247-5.615v36.146l-18.5-9.248H198.17V378.316h1.684Z" data-name="Path 341" transform="translate(-34.219 -62.814)" class="colorStrokefff svgStroke"></path><path fill="none" stroke="#000000" stroke-width=".25" d="M268.24,341.6l1.675-1.692V336.42H274.7l35.7,17.849V419.7l-5.176,2.588v1.684h-3.367L288.412,430.7l-1.684,1.684V430.7l-62.2-31.095V363.451Z" data-name="Path 342" transform="translate(-38.716 -57.387)" class="colorStrokefff svgStroke"></path><path fill="none" stroke="#000000" stroke-width=".25" d="M210.5,377.289l-2.281-1.145L210.5,375Z" data-name="Path 343" transform="translate(-35.933 -63.969)" class="colorStrokefff svgStroke"></path><path fill="none" stroke="#000000" stroke-width=".25" d="M146.65,336.42h52.071l-27.57,12.25Z" data-name="Path 344" transform="translate(-25.431 -57.387)" class="colorStrokefff svgStroke"></path><path fill="none" stroke="#000000" stroke-width=".25" d="M192.677,370.219l-6.652,3.326h-1.684l-1.675-1.684-63.89-31.949H117.1V336.42h7.987Z" data-name="Path 345" transform="translate(-20.39 -57.387)" class="colorStrokefff svgStroke"></path><path fill="none" stroke="#000000" stroke-width=".25" d="M210.97,369.074V336.42h11.247v27.031Z" data-name="Path 346" transform="translate(-36.403 -57.387)" class="colorStrokefff svgStroke"></path><path fill="none" stroke="#000000" stroke-width=".25" d="M268.24,341.6l-43.71,21.847V336.42h45.386v3.492Z" data-name="Path 347" transform="translate(-38.716 -57.387)" class="colorStrokefff svgStroke"></path><path fill="none" stroke="#000000" stroke-width=".25" d="M176.19,348.67l27.57-12.25h1.277V363.1Z" data-name="Path 348" transform="translate(-30.47 -57.387)" class="colorStrokefff svgStroke"></path><path fill="none" stroke="#000000" stroke-width=".25" d="M196.6,363.1v5.972l-2.281,1.145-67.589-33.8h16.522l24.5,12.25Z" data-name="Path 349" transform="translate(-22.033 -57.387)" class="colorStrokefff svgStroke"></path><path fill="none" stroke="#000000" stroke-width=".25" d="M107.181,336.42v11.9H105.5l-3.359,1.684L58.95,371.778V358.142l43.445-21.722Z" data-name="Path 350" transform="translate(-10.471 -57.387)" class="colorStrokefff svgStroke"></path><path fill="none" stroke="#000000" stroke-width=".25" d="M595.68,353.415l-20.022,10.111-.008-27.105h25.38" data-name="Path 351" transform="translate(-98.611 -57.387)" class="colorStrokefff svgStroke"></path><path fill="none" stroke="#000000" stroke-width=".25" d="M532.383,339.638l6.378-3.218h14.747v27.105L445.85,417.894V342.168l8.684,4.039,21.051-9.787H500.84L471.18,350.2v3.683L508.77,336.42h26.757L532.383,338Z" data-name="Path 352" transform="translate(-76.469 -57.387)" class="colorStrokefff svgStroke"></path><path fill="none" stroke="#000000" stroke-width=".25" d="M445.85,544.7l107.658-53.2v86.508" data-name="Path 353" transform="translate(-76.469 -83.841)" class="colorStrokefff svgStroke"></path><path fill="none" stroke="#000000" stroke-width=".25" d="M550.18,339.638V338l3.143-1.584h3.235Z" data-name="Path 354" transform="translate(-94.266 -57.387)" class="colorStrokefff svgStroke"></path><path fill="none" stroke="#000000" stroke-width=".25" d="M575.668,539.438l-.008-53.332,52.975-26.176" data-name="Path 355" transform="translate(-98.612 -78.456)" class="colorStrokefff svgStroke"></path><path fill="none" stroke="#000000" stroke-width=".25" d="M553.508,375.569,445.85,428.519V422.68l107.658-54.36Z" data-name="Path 356" transform="translate(-76.469 -62.829)" class="colorStrokefff svgStroke"></path><path fill="none" stroke="#000000" stroke-width=".25" d="M596.868,363.054,575.66,373.488v-7.257l20.022-10.111" data-name="Path 357" transform="translate(-98.612 -60.748)" class="colorStrokefff svgStroke"></path><path fill="none" stroke="#000000" stroke-width=".25" d="M445.85,525.612V433.97l107.658-54.36v92.8l-107.658,53.2" data-name="Path 358" transform="translate(-76.469 -64.755)" class="colorStrokefff svgStroke"></path><path fill="none" stroke="#000000" stroke-width=".25" d="M628.635,443.9,575.66,470.075v-92.8L598.1,365.95" data-name="Path 359" transform="translate(-98.612 -62.425)" class="colorStrokefff svgStroke"></path><path fill="none" stroke="#000000" stroke-width=".25" d="M553.508,377.06v2.115L445.85,433.535V430.01Z" data-name="Path 360" transform="translate(-76.469 -64.32)" class="colorStrokefff svgStroke"></path><path fill="none" stroke="#000000" stroke-width=".25" d="M598.1,365.7l-22.436,11.33v-2.115l21.208-10.434" data-name="Path 361" transform="translate(-98.612 -62.174)" class="colorStrokefff svgStroke"></path><path fill="none" stroke="#000000" stroke-width=".25" d="M476.39,350.2l29.66-13.785h7.929L476.39,353.888Z" data-name="Path 362" transform="translate(-81.679 -57.387)" class="colorStrokefff svgStroke"></path><path fill="none" stroke="#000000" stroke-width=".25" d="M445.85,342.168V336.42h29.735l-21.051,9.787Z" data-name="Path 363" transform="translate(-76.469 -57.387)" class="colorStrokefff svgStroke"></path><path fill="none" stroke="#000000" stroke-width=".25" d="M575.65,578.006V491.5l.008-.008.008,53.331" data-name="Path 364" transform="translate(-98.611 -83.84)" class="colorStrokefff svgStroke"></path><rect height="27.105" fill="none" stroke="#000000" stroke-width=".25" data-name="Rectangle 13" transform="translate(477.039 279.033)" class="colorStrokefff svgStroke"></rect><path fill="none" stroke="#000000" stroke-width=".25" d="M575.658,368.31v7.257h-.008v-7.249Z" data-name="Path 365" transform="translate(-98.611 -62.827)" class="colorStrokefff svgStroke"></path><path fill="none" stroke="#000000" stroke-width=".25" d="M575.65,379.61h.008v92.8l-.008.008Z" data-name="Path 366" transform="translate(-98.611 -64.755)" class="colorStrokefff svgStroke"></path><path fill="none" stroke="#000000" stroke-width=".25" d="M575.658,377.06v2.115h-.008V377.06Z" data-name="Path 367" transform="translate(-98.611 -64.32)" class="colorStrokefff svgStroke"></path></g></svg></g></svg>